<svg xmlns="http://www.w3.org/2000/svg" width="16" height="16" viewBox="0 0 16 16">
    <g id="다각형_32" fill="#fff" stroke="none" data-name="다각형 32">
        <path d="M12.302 15.089l-4.066-2.177L8 12.785l-.236.127-4.066 2.177.719-4.777.036-.242-.168-.177L1.01 6.45l4.551-.76.255-.042.113-.232L8 1.146l2.07 4.27.113.232.255.043 4.55.759-3.273 3.443-.168.177.036.242.719 4.777z"/>
        <path fill="#c3ccd3" d="M8 2.292L6.38 5.634l-.226.465-.51.085-3.621.604 2.624 2.76.337.355-.073.483-.57 3.791 3.187-1.706.472-.253.472.253 3.187 1.706-.57-3.79-.073-.484.337-.354 2.624-2.761-3.621-.604-.51-.085-.226-.465L8 2.292M8 0l2.52 5.198L16 6.11l-3.923 4.127.867 5.762L8 13.352 3.056 16l.867-5.762L0 6.11l5.48-.913L8 0z"/>
    </g>
</svg>
