<svg width="385" height="64" fill="none" xmlns="http://www.w3.org/2000/svg">
    <mask id="a" style="mask-type:alpha" maskUnits="userSpaceOnUse" x="0" y="0" width="385" height="64">
        <rect width="385" height="64" rx="10" fill="#96E827"/>
    </mask>
    <g mask="url(#a)">
        <rect width="385" height="64" rx="10" fill="#96E827"/>
        <path d="M63.015 42.072a33.043 33.043 0 0 1-5.563 18.35 33.011 33.011 0 0 1-14.813 12.164 32.988 32.988 0 0 1-35.971-7.16A33.047 33.047 0 0 1-.487 29.432 33.024 33.024 0 0 1 11.669 14.61a32.993 32.993 0 0 1 41.68 4.105 33.024 33.024 0 0 1 9.666 23.357z" fill="#fff"/>
        <path d="M41.545 25.739a4.172 4.172 0 0 1 2.778-5.025 7.976 7.976 0 0 1 5.293.646 11.52 11.52 0 0 1 4.508 4.122 17.342 17.342 0 0 1 1.625 4.274c.695 2.676.125 5.915-2.583 7.04-2.71 1.127-5.467-.131-6.14-2.78a4.435 4.435 0 0 1-.133-.903 5.515 5.515 0 0 0-.145-1 6.255 6.255 0 0 0-2.779-3.802c-1.264-.695-2.084-1.23-2.438-2.544M30.73 28.11c.57-2.406-.806-4.54-3.07-4.755a10.295 10.295 0 0 0-4.661.785 17.005 17.005 0 0 0-5.703 4.372 12.12 12.12 0 0 0-2.778 7.319c-.146 3.002 2.014 6.186 4.73 6.45 2.716.264 5.46-1.87 6.133-4.761.073-.308.12-.622.14-.938.014-.354.063-.706.145-1.05.41-1.751 1.153-3.26 2.619-4.087a5.266 5.266 0 0 0 2.438-3.315M41.183 32.411a.91.91 0 0 0-.486-.84l-.104-.042a4.678 4.678 0 0 0-2.598-.292 6.09 6.09 0 0 0-2.605 1.112l-.097.076a1.301 1.301 0 0 0-.486.994 2.692 2.692 0 0 0 3.195 2.78 3.93 3.93 0 0 0 3.188-3.774" fill="#221E1F"/>
        <path d="m132.498 32.951-4.456.706-.205 12.335 4.457-.706.073-4.44 1.778-.281.06-3.6-1.778.282.071-4.296zm-5.942 4.747.06-3.624-10.762 1.705-.06 3.623 10.762-1.704zm-10.885 9.143 10.762-1.704.059-3.6-.782.124.168-2.97-4.125.653-.167 2.97-.949.15-.069-2.932-4.125.653.07 2.933-.782.124-.06 3.6zm.456 1.005-.098 5.903 16.167-2.584.06-3.6-11.71 1.855.038-2.28-4.457.706zm36.162-18.03-4.456.707-.303 18.237 4.457-.706.128-7.703 1.777-.281.06-3.6-1.778.282.115-6.935zm-16.597 2.869-.286 17.277 10.548-1.67.06-3.6-6.092.965.167-10.078 5.618-.89.06-3.6-10.075 1.596zm34.658 1.212-.052 3.12-7.87 1.246.163-9.839 7.87-1.246-.052 3.12.996-.158.056-3.36 3.982-.63-.171 10.318-3.982.63.055-3.359-.995.158zm5.804-7.86 3.983-.63-.172 10.318-3.982.63.171-10.318zm-9.281 7.932.044-2.64-.901.143-.044 2.64.901-.143zm-3.158 12.228.122-7.367 16.119-2.553-.122 7.367-16.119 2.553zm4.501-4.83-.014.888 7.229-1.145.015-.888-7.23 1.145zm25.962-18.233 4.456-.706-.303 18.286-4.456.706.119-7.223-1.564.248-.108 6.503-10.572 1.674.287-17.325 4.457-.706-.086 5.183 1.659-.263.086-5.183 4.456-.706-.119 7.223 1.564-.248.124-7.463zm-6.253 14.92.082-4.943-1.659.263-.082 4.943 1.659-.263zm25.697-17.952 4.457-.705-.164 9.838-4.456.706.163-9.838zm-7.075 8.947a8.721 8.721 0 0 1-2.206 1.834 7.443 7.443 0 0 1-2.545.905l-.888-3.449c.964-.153 1.784-.633 2.459-1.442.676-.825 1.025-1.942 1.048-3.35l.03-1.752 4.432-.702-.029 1.752c-.023 1.408.291 2.42.943 3.034.652.599 1.46.822 2.424.67l-1.008 3.749a6.306 6.306 0 0 1-2.552-.099 5.229 5.229 0 0 1-2.108-1.15zm6.907 2.616.015-.888 4.433-.702-.126 7.56-16.119 2.552.125-7.559 4.457-.706-.015.888 7.23-1.145zm-.063 3.792.015-.912-7.23 1.145-.015.912 7.23-1.145zm15.844-14.31c1.217-.192 2.134-.385 2.752-.578.634-.197 1.136-.508 1.505-.933l-5.025.796.04-2.448 5.595-.886.016-.96 4.93-.78-.016.96 5.594-.887-.04 2.448-5.025.796c.357.31.843.465 1.458.463.63-.004 1.554-.103 2.771-.295l1.019-.162-.514 2.475c-1.801.285-3.349.435-4.641.448-1.277-.005-2.33-.197-3.159-.577-.846.645-1.918 1.174-3.218 1.587-1.283.395-2.825.735-4.627 1.02l-.434-2.325 1.019-.161zm15.767 3.033-6.33 1.002-.011.696 5.855-.927-.09 5.423-11.71 1.854-.011.672 11.947-1.892-.04 2.376-16.403 2.598.09-5.423 11.71-1.855.011-.696-11.71 1.855.039-2.352 5.855-.927.012-.696-6.329 1.002.04-2.4 17.114-2.71-.039 2.4zm15.126-11.443 4.457-.706-.303 18.237-4.456.706.302-18.237zm-4.816 5.286c-.028 1.728.104 3.247.398 4.556.293 1.31.71 2.313 1.25 3.01.556.693 1.181 1.025 1.875.995l-1.012 3.99c-.852.07-1.7-.106-2.545-.531-.843-.44-1.58-1.154-2.21-2.139-.682 1.193-1.454 2.145-2.317 2.856-.863.695-1.721 1.142-2.576 1.341l-.884-3.689c1.25-.31 2.189-1.32 2.816-3.03.627-1.712.964-3.943 1.01-6.695l.071-4.295 4.196-.665-.072 4.296zm12.1 2.176.021-8.38 4.456-.706-.258 8.418-.305 4.165-3.745.593-.169-4.09zm2.021 4.993c.633-.1 1.151.026 1.555.376.419.349.624.859.613 1.53a2.578 2.578 0 0 1-.668 1.734 2.55 2.55 0 0 1-1.574.872c-.633.1-1.158-.032-1.578-.397-.419-.364-.624-.866-.613-1.506.011-.672.233-1.25.667-1.733a2.644 2.644 0 0 1 1.598-.876zM222.58 43.703l-1.233.196-.142 10.87 1.233-.194.142-10.872zm-8.543 6.538.545.872c1.285-.587 2.208-1.523 2.684-2.652.461.933 1.352 1.534 2.627 1.703l.558-1.046c-1.571-.195-2.517-1.087-2.56-2.325l2.335-.37.013-.996-2.335.37.017-1.26-1.221.194-.017 1.26-2.323.367-.013.996 2.311-.366c-.076 1.306-.991 2.552-2.621 3.253zm3.785 1.808.024-1.8-1.221.193-.024 1.86a85.912 85.912 0 0 1-2.881.492l.141.996c1.908-.303 4.445-.716 6.821-1.572l-.083-.885c-.902.287-1.828.517-2.777.716zm15.981-10.123-1.162.184-.056 4.284-1.268.2.053-4.055-1.149.182-.132 10.079 1.149-.182.066-5.016 1.268-.2-.072 5.543 1.161-.184.142-10.835zm-7.668 8.447.064-4.944 2.762-.437.013-1.008-3.959.627-.091 6.971.711-.112c1.517-.24 2.608-.461 3.904-.918l-.094-1.003c-1.105.403-2.078.617-3.31.824zm12.737-1.203-.689 1.067c.141.11.293.205.482.295.551.331 1.331.411 2.006.304 1.873-.296 3.229-1.768 3.253-3.64.023-1.752-1.174-2.496-2.774-2.243-.379.06-.782.172-1.163.316l.383-2.12 3.33-.528.016-1.212-4.243.673-.767 4.348.803.1c.441-.201.892-.369 1.354-.442 1.091-.172 1.771.295 1.756 1.386-.014 1.092-.7 2.04-1.85 2.221a2.455 2.455 0 0 1-1.897-.525zm7.06-1.119-.688 1.067c.14.11.293.205.481.295.551.332 1.331.412 2.007.305 1.872-.296 3.228-1.768 3.253-3.64.023-1.752-1.174-2.497-2.774-2.243-.379.06-.783.172-1.163.316l.382-2.12 3.331-.528.015-1.212-4.243.672-.766 4.349.803.1c.44-.201.892-.369 1.354-.442 1.09-.173 1.77.294 1.756 1.386-.014 1.092-.701 2.04-1.851 2.221a2.456 2.456 0 0 1-1.897-.526zm13.305-9.208-5.394 9.955 1.185-.188 5.382-9.952-1.173.185zm-5.049.8c-1.517.24-2.02 1.637-2.038 2.97-.017 1.307.451 2.598 1.968 2.358 1.529-.242 2.009-1.683 2.026-2.991.018-1.332-.427-2.579-1.956-2.337zm-.058 4.392c-.853.135-.945-.94-.937-1.576.008-.636.117-1.743.983-1.88.853-.135.933.942.925 1.578-.008.636-.117 1.743-.971 1.878zm6.006-1.574c-1.505.238-2.021 1.65-2.038 2.969-.018 1.344.451 2.599 1.968 2.359 1.541-.245 2.009-1.648 2.026-2.992.018-1.32-.427-2.578-1.956-2.336zm-.058 4.392c-.853.135-.945-.94-.937-1.576.008-.636.117-1.743.983-1.88.853-.135.933.942.925 1.578-.008.636-.117 1.742-.971 1.878zm12.143-9.156.013-.936-2.549.404.014-1.02-1.221.193-.013 1.02-2.549.404-.012.936 6.317-1.001zm3.536.039-1.517.24.033-2.472-1.221.194-.078 5.939 1.221-.193.032-2.448 1.517-.24.013-1.02zm-4.133 2.21c.015-1.103-.996-1.625-2.572-1.376-1.565.248-2.605 1.095-2.619 2.2-.015 1.103 1.008 1.6 2.572 1.352 1.577-.25 2.605-1.071 2.619-2.175zm-4.018.637c.008-.564.569-.976 1.434-1.113.901-.142 1.43.097 1.423.66-.008.565-.545.961-1.446 1.104-.865.137-1.418-.087-1.411-.65zm.849 5.661.011-.852 5.689-.9.033-2.556-6.909 1.094-.012.912 5.701-.903-.011.78-5.677.9-.034 2.639 7.241-1.147.012-.924-6.044.957zm17.08-4.645.103-7.87-1.221.192-.103 7.872 1.221-.194zm-2.882-3.974c.021-1.596-1.185-2.518-2.797-2.263-1.612.255-2.859 1.567-2.88 3.163-.02 1.571 1.197 2.516 2.809 2.26 1.612-.255 2.848-1.588 2.868-3.16zm-4.48.71c.013-1.008.721-1.755 1.669-1.905.937-.148 1.639.375 1.626 1.383-.013.984-.733 1.756-1.669 1.905-.948.15-1.639-.4-1.626-1.383zm7.647 4.967-6.069.962.034-2.544-1.233.195-.046 3.552 7.301-1.157.013-1.008z" fill="#000"/>
        <g clip-path="url(#b)">
            <path d="M109 36.936c-6.836-1.632-8.693-4.26-10.996-11.939-2.378 8.43-4.287 11.057-11.004 15.326 6.918 1.027 8.678 2.804 10.482 10.674C99.532 41.197 109 36.936 109 36.936z" fill="#fff"/>
        </g>
        <g clip-path="url(#c)">
            <path d="M121 19.426c-3.729-.88-4.741-2.294-5.998-6.429-1.297 4.539-2.338 5.954-6.002 8.252 3.774.553 4.733 1.51 5.717 5.748 1.119-5.277 6.283-7.571 6.283-7.571z" fill="#fff"/>
        </g>
        <g clip-path="url(#d)" fill="#fff">
            <path d="M384.391 25.027c-17.146 2.024-26.779 3.01-32.326.177a186.474 186.474 0 0 1 5.237-9.113c-2.53 2.036-5.382 4.186-8.525 6.432-3.795-4.813-4.333-14.142-4.978-30.82a.718.718 0 0 0-.276-.555.723.723 0 0 0-.603-.141 1.072 1.072 0 0 0-.885.968c-.633 16.836-1.158 26.317-4.953 32.312-3.111-1.265-5.926-2.53-8.449-3.794a130.216 130.216 0 0 1 5.211 7.45c-5.54 4.592-15.179 6.584-32.401 9.88a1.05 1.05 0 0 0-.848.986.725.725 0 0 0 .531.716.728.728 0 0 0 .317.017c17.184-2.023 26.823-3.016 32.363-.158-1.817 3.373-3.575 6.428-5.275 9.165 2.53-2.05 5.402-4.212 8.551-6.464 3.795 4.82 4.307 14.142 4.953 30.782a.736.736 0 0 0 .567.693.732.732 0 0 0 .318.003 1.063 1.063 0 0 0 .879-.968c.633-16.88 1.158-26.367 4.978-32.363a116.245 116.245 0 0 1 8.525 3.795c-1.686-2.223-3.432-4.72-5.237-7.495 5.547-4.547 15.18-6.533 32.326-9.816a1.052 1.052 0 0 0 .847-.987.726.726 0 0 0-.265-.542.737.737 0 0 0-.582-.16z"/>
            <path d="m323.022 17.4 2.992 1.543-1.967-2.688c-6.103-8.387-11.308-12.1-13.402-11.423a1.427 1.427 0 0 0-.955 1.05c-.417 2.03 4.105 6.761 13.332 11.517zM376.213-4.396a.938.938 0 0 0-.936-.752c-2.018-.076-7.312 5.3-13.415 15.565l-1.954 3.288 2.991-2.466c9.215-7.609 13.75-13.731 13.314-15.635zM309.709 68.976a.941.941 0 0 0 .955.747h.24c2.189-.335 7.28-5.648 13.162-15.546l1.948-3.29-2.992 2.468c-9.227 7.596-13.749 13.718-13.313 15.621zM362.899 47.176l-2.991-1.537 1.954 2.682c5.876 8.083 10.973 11.82 13.162 11.485.079-.011.158-.03.234-.057a1.416 1.416 0 0 0 .955-1.05c.436-2.036-4.099-6.76-13.314-11.523z"/>
        </g>
    </g>
    <defs>
        <clipPath id="b">
            <path fill="#fff" transform="translate(87 24.997)" d="M0 0h22v26H0z"/>
        </clipPath>
        <clipPath id="c">
            <path fill="#fff" transform="translate(109 12.997)" d="M0 0h12v14H0z"/>
        </clipPath>
        <clipPath id="d">
            <path fill="#fff" transform="translate(300.595 -9)" d="M0 0h84.649v82.6H0z"/>
        </clipPath>
    </defs>
</svg>
