<svg width="269" height="54" fill="none" xmlns="http://www.w3.org/2000/svg">
    <path d="M17.837 7.582a3.86 3.86 0 0 1-3.86 3.86 3.859 3.859 0 0 1-3.861-3.86 3.86 3.86 0 0 1 3.86-3.86 3.86 3.86 0 0 1 3.861 3.86zM27.61 50.279l-.597-.368c-1.34-.82-4.94-3.1-9.487-6.636-6.242-4.883-6.185-13.278-6.185-13.367V17.691l.984-.146c6.515-.953 12.345-5.423 14.548-7.296l.743-.635.743.635c2.203 1.88 8.026 6.35 14.548 7.296l.984.146v12.25c0 .063.127 8.4-6.185 13.334-4.547 3.537-8.153 5.823-9.493 6.642l-.603.362z" fill="#6AED63"/>
    <path d="m24.212 30.505.096 1.162c-2.381.483-5.03.508-6.928.508l-.203-1.295c.819 0 1.79 0 2.806-.038v-1.696h1.607v1.62c.92-.058 1.753-.127 2.622-.26zm-4.241-4.838h-2.223v-1.27h2.235V23.19h1.607v1.207h2.26v1.27h-2.247c.095 1.066.92 2.082 2.552 2.489l-.698 1.206c-1.308-.324-2.153-1.041-2.648-1.955-.495.965-1.365 1.714-2.673 2.07l-.712-1.22c1.639-.425 2.445-1.473 2.547-2.59zm4.845 8.585V23.076h1.594v11.176h-1.594zM31.3 27.178c-.483 1.111-1.34 1.962-2.61 2.394l-.833-1.258c1.874-.615 2.61-2.101 2.61-3.613v-1.003h1.62v1.137c0 1.34.749 2.635 2.501 3.194l-.831 1.232c-1.175-.388-1.988-1.112-2.458-2.083zm5.606 4.902c0 1.353-1.441 2.153-3.76 2.153-2.336 0-3.77-.8-3.77-2.153 0-1.34 1.44-2.14 3.77-2.14 2.325 0 3.76.794 3.76 2.14zm-1.581 0c0-.616-.762-.908-2.178-.908-1.46 0-2.19.305-2.19.908 0 .616.723.92 2.19.92 1.416-.006 2.178-.291 2.178-.92zm1.46-5.08v2.686h-1.593v-6.578h1.593v2.578h1.474v1.32h-1.474V27z" fill="#fff"/>
    <g opacity=".15">
        <path d="M71.507 7.582c0 2.133-1.696 3.86-3.79 3.86-2.094 0-3.789-1.727-3.789-3.86 0-2.134 1.695-3.86 3.79-3.86 2.093 0 3.788 1.726 3.788 3.86zM81.098 50.279l-.586-.368c-1.315-.82-4.849-3.1-9.31-6.636-6.096-4.858-6.077-13.011-6.071-13.36V17.69l.966-.146c6.394-.953 12.116-5.423 14.278-7.296l.73-.635.728.635c2.163 1.88 7.878 6.35 14.279 7.296l.966.146v12.25c0 .063.124 8.4-6.07 13.334-4.463 3.537-8.003 5.823-9.318 6.642l-.592.362z" fill="#989DA0"/>
        <path d="M73.862 29.102c-1.682 0-2.966-1.137-2.966-2.699 0-1.581 1.284-2.711 2.966-2.711 1.677 0 2.955 1.124 2.955 2.711 0 1.562-1.284 2.699-2.955 2.699zm5.672 2.927c0 1.39-1.446 2.21-3.69 2.21-2.268 0-3.702-.82-3.702-2.21 0-1.378 1.434-2.203 3.702-2.203 2.238 0 3.69.825 3.69 2.203zm-5.672-4.267c.817 0 1.434-.483 1.434-1.353s-.617-1.365-1.434-1.365c-.853 0-1.433.495-1.433 1.365s.573 1.353 1.433 1.353zm4.114 4.267c0-.641-.748-.952-2.138-.952-1.433 0-2.15.31-2.15.952 0 .68.71.953 2.15.953 1.39 0 2.138-.273 2.138-.953zm2.835-5.15v1.308H79.41v1.404h-1.564v-6.496h1.564v1.365h1.402v1.308H79.41v1.111h1.402zM81.503 33.115V31.82h4.145v-1.277c-1.814-.184-2.93-.933-2.93-2.14 0-1.365 1.434-2.178 3.703-2.178 2.28 0 3.714.813 3.714 2.178 0 1.207-1.103 1.956-2.917 2.14v1.283h4.2v1.295h-9.915v-.006zm.424-8.63h3.714v-1.282h1.565v1.282h3.74v1.27h-9.019v-1.27zm4.487 4.846c1.415 0 2.113-.318 2.113-.934 0-.629-.698-.946-2.113-.946-1.39 0-2.088.317-2.088.946 0 .622.699.934 2.088.934z" fill="#fff"/>
    </g>
    <g opacity=".15">
        <path d="M125.167 7.582c0 2.133-1.759 3.86-3.932 3.86s-3.932-1.727-3.932-3.86c0-2.134 1.759-3.86 3.932-3.86s3.932 1.726 3.932 3.86zM135.121 50.279l-.608-.368c-1.365-.82-5.032-3.1-9.663-6.636-6.357-4.883-6.299-13.278-6.299-13.367V17.691l1.003-.146c6.635-.953 12.572-5.423 14.817-7.296l.756-.635.757.635c2.244 1.88 8.175 6.35 14.817 7.296l1.003.146v12.25c0 .069.09 8.432-6.3 13.334-4.63 3.537-8.304 5.823-9.669 6.642l-.614.362z" fill="#989DA0"/>
        <path d="M124.443 32.937v-1.295h4.307v-2.045h-3.227V23.78h1.61v1.728h4.851V23.78h1.604v5.816h-3.214v2.045h4.333v1.295h-10.264zm7.554-6.166h-4.851v1.562h4.851v-1.562zM135.528 30.08v-1.245h4.314v-.692h-3.027v-4.762h7.807v1.206h-6.196v.578h5.937v1.162h-5.937v.603h6.28v1.207h-3.24v.692h4.32v1.244h-10.258v.007zm9.055 2.324c0 1.206-1.345 1.829-3.939 1.829-2.574 0-3.926-.616-3.926-1.83 0-1.212 1.352-1.828 3.926-1.828 2.594.006 3.939.622 3.939 1.829zm-1.643 0c0-.47-.711-.654-2.302-.654-1.591 0-2.29.184-2.29.654 0 .47.705.666 2.29.666 1.591 0 2.302-.196 2.302-.666z" fill="#fff"/>
    </g>
    <g opacity=".15">
        <path d="M179.507 7.582c0 2.133-1.696 3.86-3.79 3.86-2.094 0-3.789-1.727-3.789-3.86 0-2.134 1.695-3.86 3.789-3.86 2.094 0 3.79 1.726 3.79 3.86zM189.098 50.279l-.586-.368c-1.315-.82-4.849-3.1-9.311-6.636-6.095-4.858-6.076-13.011-6.07-13.36V17.69l.966-.146c6.394-.953 12.116-5.423 14.278-7.296l.729-.635.73.635c2.162 1.88 7.877 6.35 14.278 7.296l.966.146v12.25c0 .063.125 8.4-6.07 13.334-4.463 3.537-8.003 5.823-9.318 6.642l-.592.362z" fill="#989DA0"/>
        <path d="M183.19 30.105v3.785h-1.564V30.2c-.948.039-1.827.051-2.599.051l-.181-1.308c1.901 0 4.618-.025 6.93-.374l.094 1.162c-.904.184-1.776.292-2.68.374zm-3.702-4.184c0-1.404 1.221-2.381 2.873-2.381 1.652 0 2.861.977 2.861 2.38 0 1.391-1.209 2.37-2.861 2.37-1.652 0-2.873-.979-2.873-2.37zm1.508 0c0 .68.555 1.067 1.365 1.067.81 0 1.365-.388 1.365-1.067 0-.724-.555-1.086-1.365-1.086-.81 0-1.365.362-1.365 1.086zm5.397 8.3V23.094h1.565V34.22h-1.565zM189.528 24.073h2.412v-1.067h1.565v1.067h2.418v1.244h-6.395v-1.244zm3.204 5.626c-1.533 0-2.624-.813-2.624-2.007 0-1.2 1.091-1.994 2.624-1.994 1.533 0 2.624.8 2.624 1.994s-1.097 2.007-2.624 2.007zm5.908 4.4h-7.273v-3.81h7.273v3.81zm-5.908-5.575c.667 0 1.128-.292 1.128-.832 0-.533-.461-.819-1.128-.819-.667 0-1.128.292-1.128.82 0 .539.461.831 1.128.831zm4.375 3.023h-4.201v1.308h4.201v-1.308zm-.031-1.728v-2.178h-1.365v-1.295h1.365v-3.251h1.564v6.724h-1.564z" fill="#fff"/>
    </g>
    <g opacity=".15">
        <path d="M232.837 7.582a3.859 3.859 0 0 1-3.861 3.86 3.86 3.86 0 0 1-3.861-3.86 3.86 3.86 0 0 1 3.861-3.86 3.859 3.859 0 0 1 3.861 3.86zM242.61 50.279l-.597-.368c-1.34-.82-4.941-3.1-9.487-6.636-6.21-4.858-6.191-13.011-6.185-13.36V17.69l.984-.146c6.515-.953 12.345-5.423 14.548-7.296l.743-.635.743.635c2.203 1.88 8.026 6.35 14.548 7.296l.984.146v12.25c0 .069.089 8.432-6.185 13.334-4.553 3.537-8.153 5.823-9.493 6.642l-.603.362z" fill="#989DA0"/>
        <path d="M235.574 26.88c-.521 1.066-1.416 1.898-2.718 2.323l-.775-1.263c1.874-.578 2.661-2.007 2.661-3.36v-1.079h1.619v1.08c0 1.34.788 2.648 2.591 3.168l-.762 1.245c-1.264-.375-2.121-1.137-2.616-2.115zm5.804 7.22h-7.411v-4.198h7.411v4.197zm-1.562-2.954h-4.28v1.709h4.28v-1.708zm-.045-1.765v-6.286h1.607v6.286h-1.607zM243.53 29.565l-.641-1.244c2.476-.616 3.848-1.835 4.077-3.328h-3.531v-1.27h5.258c0 2.998-1.842 4.966-5.163 5.842zm8.255 4.68h-1.594v-2.952h-5.829v-1.27h7.423v4.222zm0-4.692h-1.594v-6.458h1.594v2.597h1.473V27h-1.473v2.553z" fill="#fff"/>
    </g>
</svg>
