<?xml version="1.0" encoding="UTF-8"?>
<svg width="3px" height="17px" viewBox="0 0 3 17" version="1.1" xmlns="http://www.w3.org/2000/svg" xmlns:xlink="http://www.w3.org/1999/xlink">
    <title>ellipsis-v-solid</title>
    <g id="Page-1" stroke="none" stroke-width="1" fill="none" fill-rule="evenodd">
        <g id="ellipsis-v-solid" fill="#000000" fill-rule="nonzero">
            <path d="M1.5,6.76594679 C2.32916667,6.76594679 3,7.43678013 3,8.26594679 C3,9.09511349 2.32916667,9.76594679 1.5,9.76594679 C0.670833333,9.76594679 0,9.09511349 0,8.26594679 C0,7.43678013 0.670833333,6.76594679 1.5,6.76594679 Z M0,1.5 C0,2.32916667 0.670833333,3 1.5,3 C2.32916667,3 3,2.32916667 3,1.5 C3,0.670833333 2.32916667,0 1.5,0 C0.670833333,0 0,0.670833333 0,1.5 Z M0,15.0318936 C0,15.8610603 0.670833333,16.5318936 1.5,16.5318936 C2.32916667,16.5318936 3,15.8610603 3,15.0318936 C3,14.202727 2.32916667,13.5318936 1.5,13.5318936 C0.670833333,13.5318936 0,14.202727 0,15.0318936 Z" id="Shape"></path>
        </g>
    </g>
</svg>