<svg xmlns="http://www.w3.org/2000/svg" id="prefix__icon_close" width="16" height="16" data-name="icon/close" viewBox="0 0 16 16">
    <path id="prefix__사각형_138" fill="none" d="M0 0H16V16H0z" data-name="사각형 138"/>
    <path id="prefix__합치기_3" fill="#34d52e" d="M-22.664 7.058l-6.129-6.13-6.13 6.129a.51.51 0 0 1-.721 0 .511.511 0 0 1 0-.721l6.13-6.129-6.129-6.129a.511.511 0 0 1 0-.721.51.51 0 0 1 .721 0l6.129 6.129 6.129-6.129a.511.511 0 0 1 .722 0 .511.511 0 0 1 0 .721l-6.13 6.129 6.129 6.129a.509.509 0 0 1 0 .721.508.508 0 0 1-.36.149.508.508 0 0 1-.361-.148z" data-name="합치기 3" transform="translate(36.793 7.793)"/>
</svg>
