<svg width="20" height="20" fill="none" xmlns="http://www.w3.org/2000/svg">
    <path d="M16.667 16.667h-3.334v-3.334h3.334v3.334zm-5-8.334H8.333v3.334h3.334V8.333zm5 0h-3.334v3.334h3.334V8.333zm-10 5H3.333v3.334h3.334v-3.334zm5 0H8.333v3.334h3.334v-3.334zm-5-5H3.333v3.334h3.334V8.333zM20 1.667V20H0V1.667h2.5V2.5c0 .92.748 1.667 1.667 1.667S5.833 3.419 5.833 2.5v-.833h8.334V2.5c0 .92.747 1.667 1.666 1.667.92 0 1.667-.748 1.667-1.667v-.833H20zm-1.667 5H1.667v11.666h16.666V6.667zM16.667.833a.833.833 0 1 0-1.667 0V2.5a.833.833 0 1 0 1.667 0V.833zM5 2.5a.833.833 0 1 1-1.667 0V.833A.833.833 0 1 1 5 .833V2.5z" fill="#989DA0"/>
</svg>
