<svg xmlns="http://www.w3.org/2000/svg" id="prefix__icon_info" width="16" height="16" data-name="icon/info" viewBox="0 0 16 16">
    <g id="prefix__타원_14" fill="#fff" stroke="#989da0" data-name="타원 14">
        <circle cx="8" cy="8" r="8" stroke="none"/>
        <circle cx="8" cy="8" r="7.5" fill="none"/>
    </g>
    <path id="prefix__패스_12" fill="#989da0" d="M2.086-2.836v-.44q0-.25.015-.45a1.5 1.5 0 0 1 .085-.395 1.6 1.6 0 0 1 .225-.4 3.265 3.265 0 0 1 .445-.47q.33-.31.53-.515a2.386 2.386 0 0 0 .3-.37.943.943 0 0 0 .135-.31 1.725 1.725 0 0 0 .03-.345v-.1a.733.733 0 0 0-.245-.545 1.19 1.19 0 0 0-.835-.235 1.993 1.993 0 0 0-.855.18 2.579 2.579 0 0 0-.7.49l-.7-.88a2.986 2.986 0 0 1 1.065-.7 3.478 3.478 0 0 1 1.235-.22 3.161 3.161 0 0 1 .98.14 2.233 2.233 0 0 1 .73.385 1.6 1.6 0 0 1 .455.59 1.821 1.821 0 0 1 .155.755v.14a1.974 1.974 0 0 1-.1.655 2.217 2.217 0 0 1-.265.525 3.235 3.235 0 0 1-.38.455q-.215.215-.445.435-.19.18-.32.315a1.48 1.48 0 0 0-.2.26.95.95 0 0 0-.11.275 1.658 1.658 0 0 0-.035.37v.41zm-.06.83h1.32v1.3h-1.32z" data-name="패스 12" opacity="0.996" transform="translate(5 13.042)"/>
</svg>
