<svg width="20" height="21" fill="none" xmlns="http://www.w3.org/2000/svg">
    <g clip-path="url(#a)">
        <path fill-rule="evenodd" clip-rule="evenodd" d="m10.523 17.877 4.975-4.975 1.215 3.091-10.284 4.04L2.423 9.835l8.1 8.042zM9.46.033H1.667v7.878l8.854 8.79 7.812-7.813L9.46.033zm3.354 7.897c-.346-.346-.72-.514-1.148-.514-.482 0-1.023.2-1.81.67-.568.342-.93.487-1.213.487-.3 0-.902-.34-.8-1.015.043-.288.208-.581.476-.85.544-.543 1.287-.707 1.897-.089l.62-.62c-.397-.396-.913-.66-1.468-.66-.471 0-.937.19-1.385.564l-.522-.522-.582.582.544.544c-.474.688-.701 1.684.064 2.448.842.843 1.823.451 2.844-.193.5-.316.902-.47 1.23-.47.49 0 .982.416.897 1.049-.043.322-.216.636-.517.935-.376.376-.753.566-1.123.566-.348 0-.622-.16-.874-.385l-.616.616c.386.381.902.627 1.446.627.454 0 .906-.167 1.344-.497l.45.448.58-.58-.433-.435c.62-.747.964-1.84.1-2.706zM4.75 1.7a1.416 1.416 0 1 1 0 2.832 1.416 1.416 0 0 1 0-2.832z" fill="#000"/>
    </g>
    <defs>
        <clipPath id="a">
            <path fill="#fff" transform="translate(0 .033)" d="M0 0h20v20H0z"/>
        </clipPath>
    </defs>
</svg>
