<svg xmlns="http://www.w3.org/2000/svg" width="24" height="24" viewBox="0 0 24 24">
    <path fill="none" d="M0 0H24V24H0z"/>
    <path d="M1113.482-100.858l-.1-.136a10.185 10.185 0 0 1-2.933-7.2c.013-.091.031-.4.041-.569v-.029a5.174 5.174 0 0 0-1.914-3.932 7.764 7.764 0 0 0-4.375-1.739v-1.889h-1.618v1.878a6.944 6.944 0 0 0-5.72 3.6 4.329 4.329 0 0 0-.479 2.108l.021.345a10.676 10.676 0 0 1-3 7.421l-.1.136a2.833 2.833 0 0 0 .034 2.846c.639.873 1.909 1.315 3.774 1.315h2.318a.1.1 0 0 1 0 .023l.008.21a3.836 3.836 0 0 0 3.952 3.7 3.838 3.838 0 0 0 3.954-3.7l.006-.194a.3.3 0 0 0 0-.039h2.322c1.865 0 3.135-.442 3.774-1.315a2.833 2.833 0 0 0 .035-2.84zm-7.753 4.395a2.267 2.267 0 0 1-2.336 2.187 2.266 2.266 0 0 1-2.335-2.187v-.106c.487-.012 1.215-.006 1.671 0h.929c.455 0 1.462 0 2.074.024zm6.347-2.29c-.32.433-1.152.661-2.4.661h-12.559c-1.25 0-2.082-.229-2.4-.661a1.563 1.563 0 0 1 .024-1.445 11.977 11.977 0 0 0 3.286-8.284l-.021-.339a3.16 3.16 0 0 1 .357-1.515 5.6 5.6 0 0 1 5.087-2.794 6.158 6.158 0 0 1 3.988 1.392 3.884 3.884 0 0 1 1.443 2.9V-108.722c-.006.121-.016.307-.029.422a11.447 11.447 0 0 0 3.213 8.1 1.563 1.563 0 0 1 .011 1.447z" transform="translate(-1091.395 116.599)"/>
</svg>
