<svg xmlns="http://www.w3.org/2000/svg" width="24" height="24" viewBox="0 0 24 24">
    <path fill="none" d="M0 0H24V23.999H0z" transform="translate(0 .001)"/>
    <path d="M1171.952-109.159l1.118-1.368a1.63 1.63 0 0 0 .309-.613 1.6 1.6 0 0 0-1.155-1.947l-5.248-1.328a1.567 1.567 0 0 1-.984-.744l-2.755-4.724a1.606 1.606 0 0 0-.589-.587 1.6 1.6 0 0 0-2.184.587l-2.755 4.724a1.565 1.565 0 0 1-.985.744l-5.247 1.328a1.6 1.6 0 0 0-.619.31 1.6 1.6 0 0 0-.237 2.249l3.577 4.415a1.617 1.617 0 0 1 .36 1.118l-.429 5.7a1.552 1.552 0 0 0 .426 1.2 1.614 1.614 0 0 0 1.174.52 1.7 1.7 0 0 0 .642-.128l4.784-2.072a7.227 7.227 0 0 0 5.918 3.089 7.208 7.208 0 0 0 7.19-7.2 7.14 7.14 0 0 0-2.311-5.273zm-1.678 6.087h-2.4v2.387a.8.8 0 0 1-.8.8.8.8 0 0 1-.8-.8v-2.387h-2.4a.805.805 0 0 1-.806-.8.807.807 0 0 1 .806-.806h2.4v-2.4a.8.8 0 0 1 .8-.8.8.8 0 0 1 .8.8v2.4h2.4a.807.807 0 0 1 .806.806.805.805 0 0 1-.807.8zm.4-7.039a7.2 7.2 0 0 0-6.281-.451 7.206 7.206 0 0 0-4.015 9.368l-4.641 2.022.419-5.7a3.181 3.181 0 0 0-.7-2.249l-3.578-4.415 5.246-1.328a3.253 3.253 0 0 0 1.976-1.488l2.749-4.724 2.766 4.724a3.219 3.219 0 0 0 1.968 1.488l5.248 1.328z" transform="translate(-1150.264 120.682)"/>
</svg>
