<?xml version="1.0" encoding="utf-8"?>
<!-- Generator: Adobe Illustrator 22.0.1, SVG Export Plug-In . SVG Version: 6.00 Build 0)  -->
<svg version="1.1" id="레이어_1" xmlns="http://www.w3.org/2000/svg" xmlns:xlink="http://www.w3.org/1999/xlink" x="0px"
	 y="0px" viewBox="0 0 20 18.9" style="enable-background:new 0 0 20 18.9;" xml:space="preserve">
<style type="text/css">
	.st0{fill:none;}
	.st1{fill:#34D52E;}
</style>
<path class="st0" d="M10,19l-1.4-1.3C3.4,13,0,9.9,0,6.1C0,3,2.4,0.6,5.5,0.6c1.7,0,3.4,0.8,4.5,2.1c1.1-1.3,2.8-2.1,4.5-2.1
	C17.6,0.6,20,3,20,6.1c0,3.8-3.4,6.9-8.6,11.5L10,19z"/>
<path class="st1" d="M14.5,0.6c-1.7,0-3.4,0.8-4.5,2.1C8.9,1.4,7.2,0.6,5.5,0.6C2.4,0.6,0,3,0,6.1C0,9.9,3.4,13,8.6,17.6L10,19
	l1.4-1.3C16.6,13,20,9.9,20,6.1C20,3,17.6,0.6,14.5,0.6z M10.1,16.2L10,16.3l-0.1-0.1C5.1,11.8,2,9,2,6.1c0-2,1.5-3.5,3.5-3.5
	c1.5,0,3,1,3.6,2.4h1.9c0.5-1.4,2-2.4,3.6-2.4c2,0,3.5,1.5,3.5,3.5C18,9,14.9,11.8,10.1,16.2z"/>
</svg>
