<svg width="46" height="48" fill="none" xmlns="http://www.w3.org/2000/svg">
    <g filter="url(#a)">
        <path d="M8 21.314a12.686 12.686 0 1 0 25.373 0 12.686 12.686 0 0 0-25.373 0" fill="#fff"/>
    </g>
    <path d="M16.251 15.04a1.602 1.602 0 0 0-1.068-1.93 3.068 3.068 0 0 0-2.034.248c-.71.362-1.308.909-1.733 1.583-.28.517-.49 1.07-.624 1.642-.267 1.028-.048 2.272.993 2.704 1.041.433 2.1-.05 2.36-1.068.029-.113.046-.23.05-.347.008-.13.026-.258.057-.384a2.403 2.403 0 0 1 1.067-1.46c.486-.267.801-.473.938-.978M20.409 15.95c-.22-.923.31-1.743 1.18-1.825a3.958 3.958 0 0 1 1.791.301c.842.397 1.59.97 2.192 1.68a4.653 4.653 0 0 1 1.068 2.81c.056 1.154-.774 2.377-1.818 2.478-1.044.102-2.099-.718-2.358-1.829a2.181 2.181 0 0 1-.053-.36 2.15 2.15 0 0 0-.056-.403c-.157-.673-.443-1.252-1.006-1.57a2.023 2.023 0 0 1-.938-1.273M16.392 17.602a.35.35 0 0 1 .186-.323l.04-.016a1.8 1.8 0 0 1 .999-.112c.363.062.706.208 1.001.427l.038.03a.5.5 0 0 1 .186.382 1.034 1.034 0 0 1-1.228 1.068 1.511 1.511 0 0 1-1.225-1.45" fill="#221E1F"/>
    <g clip-path="url(#b)">
        <path d="M26.776 6.533v2.572c0 1.398-2.938 2.059-4.567 2.059-1.55 0-4.567-.707-4.567-2.059V5.911l4.567 2.468 4.567-1.846zm-4.102-5.518-6.555 2.918 6.09 3.298L27.79 4.99v3.637h1.015V4.44l-6.132-3.425zm6.64 10.149h-2.03c.293-.508.507-1.269.507-2.03h1.015c0 .77.198 1.45.507 2.03z" fill="#000"/>
    </g>
    <defs>
        <clipPath id="b">
            <path fill="#fff" transform="translate(16.627)" d="M0 0h12.179v12.179H0z"/>
        </clipPath>
        <filter id="a" x="0" y="2.627" width="45.373" height="45.373" filterUnits="userSpaceOnUse" color-interpolation-filters="sRGB">
            <feFlood flood-opacity="0" result="BackgroundImageFix"/>
            <feColorMatrix in="SourceAlpha" values="0 0 0 0 0 0 0 0 0 0 0 0 0 0 0 0 0 0 127 0" result="hardAlpha"/>
            <feOffset dx="2" dy="4"/>
            <feGaussianBlur stdDeviation="5"/>
            <feComposite in2="hardAlpha" operator="out"/>
            <feColorMatrix values="0 0 0 0 0 0 0 0 0 0 0 0 0 0 0 0 0 0 0.15 0"/>
            <feBlend in2="BackgroundImageFix" result="effect1_dropShadow"/>
            <feBlend in="SourceGraphic" in2="effect1_dropShadow" result="shape"/>
        </filter>
    </defs>
</svg>
