<svg xmlns="http://www.w3.org/2000/svg" width="312" height="461" viewBox="0 0 312 461">
    <defs>
        <linearGradient id="linear-gradient" x1=".5" x2=".5" y2="1" gradientUnits="objectBoundingBox">
            <stop offset="0" stop-color="#fff" stop-opacity="0"/>
            <stop offset="1" stop-color="#fff"/>
        </linearGradient>
        <style>
            .cls-4{fill:#34d52e}.cls-6,.cls-9{font-family:NanumSquareEB,NanumSquare}.cls-10,.cls-4,.cls-5,.cls-6,.cls-8,.cls-9{letter-spacing:-.05em}.cls-13{fill:#000}.cls-4{font-size:15px}.cls-4,.cls-8{font-family:Lato-Bold,Lato;font-weight:700}.cls-10,.cls-4,.cls-5,.cls-6,.cls-8,.cls-9{opacity:.996}.cls-10,.cls-5,.cls-8,.cls-9{font-size:11px}.cls-5{font-family:NanumSquareR,NanumSquare}.cls-6{font-size:13px}.cls-7{fill:#d2dae0}.cls-10{font-family:Lato-Regular,Lato}.cls-11,.cls-13{font-family:AppleSDGothicNeo-Regular,Apple SD Gothic Neo}
        </style>
    </defs>
    <g id="그룹_547" data-name="그룹 547" transform="translate(-24 -144)">
        <rect id="사각형_74" width="312" height="461" fill="#fff" data-name="사각형 74" rx="10" transform="translate(24 144)"/>
        <path id="사각형_490" d="M0 0H264V2H0z" data-name="사각형 490" transform="translate(48 196)"/>
        <text id="인테리어예쁜의자_23_000원_상세_리포트" fill="#34d52e" data-name="인테리어예쁜의자 23,000원 상세 리포트" font-family="NanumSquareEB, NanumSquare" font-size="14px" letter-spacing="-0.05em" transform="translate(48 181)">
            <tspan x="0" y="0">인테리어예쁜의자 23,000원</tspan><tspan y="0" fill="#000"> 상세 리포트</tspan>
        </text>
        <text id="_14_620" class="cls-4" data-name="14,620" transform="translate(48 268)">
            <tspan x="0" y="0">14,620</tspan>
        </text>
        <text id="원" class="cls-5" transform="translate(95 267)">
            <tspan x="0" y="0">원</tspan>
        </text>
        <text id="_11_900" class="cls-4" data-name="11,900" transform="translate(197 268)">
            <tspan x="0" y="0">11,900</tspan>
        </text>
        <text id="원-2" class="cls-5" data-name="원" transform="translate(242 267)">
            <tspan x="0" y="0">원</tspan>
        </text>
        <text id="추천_판매_가격" class="cls-6" data-name="추천 판매 가격" transform="translate(48 229)">
            <tspan x="0" y="0">추천 판매 가격</tspan>
        </text>
        <text id="수익_20_판매가_추천" class="cls-5" data-name="수익 20% 판매가 추천" transform="translate(48 249)">
            <tspan x="0" y="0">수익 20% 판매가 추천</tspan>
        </text>
        <text id="_14_620-2" class="cls-4" data-name="14,620" transform="translate(48 268)">
            <tspan x="0" y="0">14,620</tspan>
        </text>
        <text id="원-3" class="cls-5" data-name="원" transform="translate(95 267)">
            <tspan x="0" y="0">원</tspan>
        </text>
        <text id="상위_20_판매가_추천" class="cls-5" data-name="상위 20% 판매가 추천" transform="translate(197 249)">
            <tspan x="0" y="0">상위 20% 판매가 추천</tspan>
        </text>
        <text id="_11_900-2" class="cls-4" data-name="11,900" transform="translate(197 268)">
            <tspan x="0" y="0">11,900</tspan>
        </text>
        <text id="원-4" class="cls-5" data-name="원" transform="translate(242 267)">
            <tspan x="0" y="0">원</tspan>
        </text>
        <path id="사각형_104" d="M0 0H264V1H0z" class="cls-7" data-name="사각형 104" transform="translate(48 372)"/>
        <path id="사각형_102" d="M0 0H264V2H0z" data-name="사각형 102" transform="translate(48 281)"/>
        <text id="_20_" class="cls-8" data-name="20%" transform="translate(69 361)">
            <tspan x="-20.674" y="0">20%</tspan>
        </text>
        <text id="해당구간_예상_수익" class="cls-9" data-name="해당구간 예상 수익" transform="translate(197 301)">
            <tspan x="0" y="0">해당구간 예상 수익</tspan>
        </text>
        <text id="_4_920원" class="cls-10" data-name="4,920원" transform="translate(73 361)">
            <tspan x="0" y="0">4,920</tspan><tspan y="0" class="cls-11">원</tspan>
        </text>
        <text id="_1_560원" fill="#34d52e" data-name="1,560원" font-family="Lato-Regular, Lato" font-size="11px" letter-spacing="-0.05em" opacity="0.996" transform="translate(197 361)">
            <tspan x="0" y="0">1,560</tspan><tspan y="0" class="cls-13">원</tspan>
        </text>
        <path id="사각형_590" d="M0 0H264V1H0z" class="cls-7" data-name="사각형 590" transform="translate(48 342)"/>
        <path id="사각형_594" d="M0 0H264V2H0z" data-name="사각형 594" transform="translate(48 281)"/>
        <path id="패스_72" d="M0 0h264v.846H0z" data-name="패스 72" transform="translate(48 310.615)"/>
        <text id="최저가_순" class="cls-9" data-name="최저가 순" transform="translate(48 301)">
            <tspan x="0" y="0">최저가 순</tspan>
        </text>
        <text id="_10_" class="cls-8" data-name="10%" transform="translate(69 330)">
            <tspan x="-20.674" y="0">10%</tspan>
        </text>
        <text id="_4_920원-2" class="cls-10" data-name="4,920원" transform="translate(73 330)">
            <tspan x="0" y="0">4,920</tspan><tspan y="0" class="cls-11">원</tspan>
        </text>
        <text id="_-2_300원" fill="#f35d5d" data-name="-2,300원" font-family="Lato-Regular, Lato" font-size="11px" letter-spacing="-0.05em" opacity="0.996" transform="translate(197 330)">
            <tspan x="0" y="0">-2,300</tspan><tspan y="0" class="cls-13">원</tspan>
        </text>
        <path id="사각형_488" d="M0 0H264V2H0z" data-name="사각형 488" transform="translate(48 454)"/>
        <text id="_263_839" class="cls-4" data-name="263,839" transform="translate(48 441)">
            <tspan x="0" y="0">263,839</tspan>
        </text>
        <text id="회" class="cls-5" transform="translate(101 440)">
            <tspan x="0" y="0">회</tspan>
        </text>
        <text id="_360" class="cls-4" data-name="360" transform="translate(197 441)">
            <tspan x="0" y="0">360</tspan>
        </text>
        <text id="원-5" class="cls-5" data-name="원" transform="translate(224 440)">
            <tspan x="0" y="0">원</tspan>
        </text>
        <text id="추천_키워드" class="cls-6" data-name="추천 키워드" transform="translate(48 402)">
            <tspan x="0" y="0">추천 키워드</tspan>
        </text>
        <path id="사각형_602" d="M0 0H264V1H0z" class="cls-7" data-name="사각형 602" transform="translate(48 514)"/>
        <path id="사각형_606" d="M0 0H264V2H0z" data-name="사각형 606" transform="translate(48 454)"/>
        <path id="패스_73" d="M0 0h264v.846H0z" data-name="패스 73" transform="translate(48 483.615)"/>
        <text id="키워드_총_월_검색량" class="cls-5" data-name="키워드 총 월 검색량" transform="translate(48 424)">
            <tspan x="0" y="0">키워드 총 월 검색량</tspan>
        </text>
        <text id="_263_839-2" class="cls-4" data-name="263,839" transform="translate(48 441)">
            <tspan x="0" y="0">263,839</tspan>
        </text>
        <text id="회-2" class="cls-5" data-name="회" transform="translate(101 440)">
            <tspan x="0" y="0">회</tspan>
        </text>
        <text id="이_카테고리_평균_광고비" class="cls-5" data-name="이 카테고리 평균 광고비" transform="translate(197 424)">
            <tspan x="0" y="0">이 카테고리 평균 광고비</tspan>
        </text>
        <text id="_360-2" class="cls-4" data-name="360" transform="translate(197 441)">
            <tspan x="0" y="0">360</tspan>
        </text>
        <text id="원-6" class="cls-5" data-name="원" transform="translate(224 440)">
            <tspan x="0" y="0">원</tspan>
        </text>
        <text id="경쟁력_높은_연관키워드" class="cls-9" data-name="경쟁력 높은 연관키워드" transform="translate(48 473)">
            <tspan x="0" y="0">경쟁력 높은 연관키워드</tspan>
        </text>
        <text id="검색량_클릭당_광고비" class="cls-9" data-name="검색량 / 클릭당 광고비" transform="translate(197 473)">
            <tspan x="0" y="0">검색량 / 클릭당 광고비</tspan>
        </text>
        <text id="_167_280_160원" class="cls-10" data-name="167,280 / 160원" transform="translate(197 503)">
            <tspan x="0" y="0">167,280 / 160</tspan><tspan y="0" class="cls-11">원</tspan>
        </text>
        <text id="안락의자" class="cls-5" transform="translate(48 502)">
            <tspan x="0" y="0">안락의자</tspan>
        </text>
        <path id="사각형_613" d="M0 0H1V116H0z" data-name="사각형 613" transform="translate(179 454)"/>
        <path id="사각형_668" d="M0 0H1V92H0z" data-name="사각형 668" transform="translate(180 281)"/>
        <rect id="사각형_666" width="312" height="394" fill="url(#linear-gradient)" data-name="사각형 666" opacity="0.997" rx="10" transform="translate(24 211)"/>
    </g>
</svg>
