<svg width="120" height="132" fill="none" xmlns="http://www.w3.org/2000/svg">
    <g clip-path="url(#a)">
        <path d="M27.95 13.97a14 14 0 1 1-28 0 14 14 0 0 1 28 0z" fill="#96E827"/>
        <g filter="url(#b)">
            <path d="M105.88 70.16a47.519 47.519 0 1 1-47.52-47.52 47.51 47.51 0 0 1 47.52 47.52z" fill="#fff"/>
        </g>
        <path d="M74.97 46.66a6 6 0 0 1 4-7.23 11.49 11.49 0 0 1 7.62.93 16.58 16.58 0 0 1 6.49 5.93 24.936 24.936 0 0 1 2.34 6.15c1 3.85.18 8.51-3.72 10.13-3.9 1.62-7.87-.19-8.84-4a6.37 6.37 0 0 1-.19-1.3 7.946 7.946 0 0 0-.21-1.44 9 9 0 0 0-4-5.47c-1.82-1-3-1.77-3.51-3.66M59.4 50.07c.82-3.46-1.16-6.53-4.42-6.84a14.83 14.83 0 0 0-6.71 1.13 24.48 24.48 0 0 0-8.21 6.29 17.43 17.43 0 0 0-4 10.53c-.21 4.32 2.9 8.9 6.81 9.28 3.91.38 7.86-2.69 8.83-6.85.104-.443.171-.895.2-1.35a8.061 8.061 0 0 1 .21-1.51c.59-2.52 1.66-4.69 3.77-5.88a7.581 7.581 0 0 0 3.51-4.77M74.45 56.26a1.31 1.31 0 0 0-.7-1.21l-.15-.06a6.741 6.741 0 0 0-3.74-.42 8.771 8.771 0 0 0-3.75 1.6l-.14.11a1.87 1.87 0 0 0-.7 1.43 3.87 3.87 0 0 0 4.6 4 5.66 5.66 0 0 0 4.59-5.43" fill="#221E1F"/>
    </g>
    <defs>
        <clipPath id="a">
            <path fill="#fff" d="M0 0h120v131.96H0z"/>
        </clipPath>
        <filter id="b" x="2.84" y="16.64" width="115.04" height="115.04" filterUnits="userSpaceOnUse" color-interpolation-filters="sRGB">
            <feFlood flood-opacity="0" result="BackgroundImageFix"/>
            <feColorMatrix in="SourceAlpha" values="0 0 0 0 0 0 0 0 0 0 0 0 0 0 0 0 0 0 127 0" result="hardAlpha"/>
            <feOffset dx="2" dy="4"/>
            <feGaussianBlur stdDeviation="5"/>
            <feComposite in2="hardAlpha" operator="out"/>
            <feColorMatrix values="0 0 0 0 0 0 0 0 0 0 0 0 0 0 0 0 0 0 0.15 0"/>
            <feBlend in2="BackgroundImageFix" result="effect1_dropShadow"/>
            <feBlend in="SourceGraphic" in2="effect1_dropShadow" result="shape"/>
        </filter>
    </defs>
</svg>
