<svg xmlns="http://www.w3.org/2000/svg" width="470" height="265" viewBox="0 0 470 265">
    <defs>
        <filter id="다각형_2" width="392" height="437.626" x="38" y="-2.634" filterUnits="userSpaceOnUse">
            <feOffset dy="10"/>
            <feGaussianBlur result="blur" stdDeviation="15"/>
            <feFlood flood-color="#dee8ef"/>
            <feComposite in2="blur" operator="in"/>
            <feComposite in="SourceGraphic"/>
        </filter>
        <filter id="다각형_15" width="203.63" height="220.797" x="131.816" y="107.194" filterUnits="userSpaceOnUse">
            <feOffset dy="10"/>
            <feGaussianBlur result="blur-2" stdDeviation="15"/>
            <feFlood flood-color="#dee8ef" flood-opacity=".204"/>
            <feComposite in2="blur-2" operator="in"/>
            <feComposite in="SourceGraphic"/>
        </filter>
        <filter id="다각형_16" width="298.321" height="329.794" x="83.861" y="52.072" filterUnits="userSpaceOnUse">
            <feOffset dy="10"/>
            <feGaussianBlur result="blur-3" stdDeviation="15"/>
            <feFlood flood-color="#dee8ef" flood-opacity=".204"/>
            <feComposite in2="blur-3" operator="in"/>
            <feComposite in="SourceGraphic"/>
        </filter>
        <linearGradient id="linear-gradient" x1=".953" x2=".22" y1=".617" y2=".602" gradientUnits="objectBoundingBox">
            <stop offset="0" stop-color="#2ce326"/>
            <stop offset="1" stop-color="#3fe5e5"/>
        </linearGradient>
        <clipPath id="clip-path">
            <path id="사각형_345" fill="#fff" d="M0 0H470V265H0z" data-name="사각형 345" transform="translate(1106 358)"/>
        </clipPath>
        <style>
            .cls-6{fill:none;stroke-dasharray:4}.cls-10,.cls-8{stroke:none}.cls-10{fill:#d2dae0}
        </style>
    </defs>
    <g id="마스크_그룹_4" clip-path="url(#clip-path)" data-name="마스크 그룹 4" transform="translate(-1106 -358)">
        <g id="그룹_167" data-name="그룹 167" transform="translate(1189 390.366)">
            <g filter="url(#다각형_2)" transform="translate(-83 -32.37)">
                <g id="다각형_2-2" fill="#fff" data-name="다각형 2">
                    <path d="M249.154 301.5H98.472c-3.423 0-6.799-.906-9.762-2.62-2.963-1.713-5.432-4.186-7.14-7.153l-75.395-131c-1.7-2.955-2.6-6.318-2.6-9.727 0-3.409.9-6.772 2.6-9.727l75.396-131c1.707-2.967 4.176-5.44 7.14-7.154C91.672 1.406 95.048.5 98.47.5h150.683c3.423 0 6.799.906 9.762 2.62 2.963 1.713 5.432 4.186 7.139 7.153l75.396 131c1.7 2.955 2.599 6.318 2.599 9.727 0 3.409-.899 6.773-2.6 9.727l-75.395 131c-1.707 2.967-4.176 5.44-7.14 7.154-2.962 1.713-6.338 2.619-9.76 2.619z" class="cls-8" transform="rotate(90 176.315 208.685)"/>
                    <path fill="#dee8ef" d="M98.472 1c-3.335 0-6.624.882-9.512 2.552-2.887 1.67-5.292 4.08-6.956 6.97l-75.395 131c-1.657 2.88-2.533 6.156-2.533 9.478s.876 6.599 2.533 9.478l75.395 131c1.664 2.89 4.07 5.3 6.956 6.97 2.888 1.67 6.176 2.552 9.512 2.552h150.682c3.335 0 6.624-.882 9.511-2.552 2.888-1.67 5.293-4.08 6.957-6.97l75.395-131c1.657-2.88 2.533-6.156 2.533-9.478s-.876-6.599-2.533-9.478l-75.395-131c-1.664-2.89-4.07-5.3-6.957-6.97C255.778 1.882 252.49 1 249.155 1H98.471m0-1h150.682c7.155 0 13.765 3.822 17.334 10.024l75.396 131c3.555 6.176 3.555 13.776 0 19.952l-75.396 131C262.92 298.178 256.31 302 249.154 302H98.472c-7.155 0-13.765-3.822-17.335-10.024l-75.395-131c-3.555-6.176-3.555-13.776 0-19.952l75.396-131C84.707 3.822 91.317 0 98.472 0z" transform="rotate(90 176.315 208.685)"/>
                </g>
            </g>
            <text id="_0" fill="#fff" data-name="0" font-family="Gotham-Medium, Gotham" font-size="18px" font-weight="500" opacity="0.996" transform="translate(142 188.981)">
                <tspan x="0" y="0">0</tspan>
            </text>
        </g>
        <path id="패스_43" fill="url(#linear-gradient)" d="M5907 1418.7l127.521 43.736 125.288-37.007-18.844 130.086H6034.52L5981.3 1523z" data-name="패스 43" transform="translate(-4698.984 -928.201)"/>
        <g filter="url(#다각형_15)" transform="translate(1106 358)">
            <g id="다각형_15-2" class="cls-6" data-name="다각형 15">
                <path d="M86.532 0a20 20 0 0 1 17.334 10.024l21.188 36.815a20 20 0 0 1 0 19.953l-21.188 36.815a20 20 0 0 1-17.334 10.023H44.264a20 20 0 0 1-17.334-10.024L5.742 66.791a20 20 0 0 1 0-19.953L26.93 10.024A20 20 0 0 1 44.264 0z" class="cls-8" transform="rotate(90 74.13 216.32)"/>
                <path d="M44.264 0h4v1h-4V0zm8 0h4v1h-4V0zm8 0h4v1h-4V0zm8 0h4v1h-4V0zm8 0h4v1h-4V0zm8 0H86.724l.011.001H86.791l.027.001h.054c.376.007.75.024 1.122.051l.012.001h.002l.011.001h.002l.013.001h.002l.01.001h.005l.006.001h.011l.014.002h.011l.003.001.166.014-.086.996C87.632 1.024 87.079 1 86.532 1h-2.268V0zm7.922.815c.417.123.828.26 1.234.408l.03.011.029.01c0 .001 0 0 0 0l.029.012.015.005.014.006.015.005h.001l.013.005h.001l.014.006h.002l.013.006.014.005h.002l.027.01.002.002.026.01.004.001.012.005h.002l.011.005.004.001.012.005.003.001.01.004.004.001.012.005.004.001.01.004.003.002.012.004.004.002.009.003.004.002.011.004.005.002.009.004.006.002.009.004.005.002.01.003.006.003.008.003.005.002.01.004.006.002.008.003.005.002.01.005c.003 0 .004 0 .006.002.003 0 .005.002.007.003l.006.002.01.004.006.002.007.003.006.002.01.004.007.003.005.002.01.004.006.003.007.002.006.003.011.004.005.002.007.003.004.002.014.005.003.001.008.004h.003l.014.007.003.001.026.01.003.002.025.01.003.001.026.01.002.002.026.01.002.001.017.007.01.004.018.008.028.012h.001l.027.012c.545.229 1.079.482 1.6.757l-.468.884c-1.118-.591-2.3-1.073-3.513-1.43l.282-.96zm7.025 3.717c1.026.84 1.972 1.786 2.82 2.827l-.775.632c-.799-.98-1.7-1.884-2.679-2.686l.634-.773zm5.035 6.151l.842 1.463.008.015.011.019.002.002.002.004.006.01v.001l.002.002.001.003.002.003.002.003.001.003.003.005.01.017.002.003.004.007.003.006.002.003.003.005.01.017.011.02v.001l.024.04 1.044 1.815-.866.499-1.996-3.467.867-.499zm3.99 6.934l1.996 3.467-.867.498-1.995-3.466.867-.5zm3.991 6.933l.592 1.029.008.013.003.006.002.003.004.007.003.005.002.004.002.003.001.002.002.003v.001l.019.032.001.003.002.003.002.004.002.003.003.005.005.008v.002l1.343 2.331-.867.499-1.995-3.467.866-.499zm3.99 6.934l1.91 3.318.037.063.014.025v.001l.007.01v.001l.001.002v.001l.003.004.024.042-.867.499-1.995-3.467.867-.499zm3.991 6.934l1.996 3.466-.867.5-1.995-3.468.866-.498zm3.991 6.933l.856 1.487.008.014.001.003.008.012.002.005.007.012.003.005.004.008.005.008.004.008.004.007.004.006.006.01.002.004.008.015.002.002c.253.447.487.901.704 1.362l.001.003.007.014.002.004.003.008.004.008.004.009.003.007.005.009.004.008.002.006.006.011.002.006.006.012.001.003.006.014.008.015v.002l.007.015c.062.135.123.27.181.406l-.918.397c-.286-.661-.613-1.313-.973-1.939l-.856-1.487.867-.499zm3.09 7.333c.056.264.107.528.152.793l.005.03.004.03.004.019v.001l.001.01v.001c.002.006.003.011.003.017v.003l.002.008.001.004.002.014v.004l.002.009v.002l.003.016v.003l.005.027v.004l.003.015v.003l.002.008v.005l.003.013v.004l.001.008.001.006.002.01.001.008.001.006.001.008.002.01v.006l.002.007.001.01.001.007.001.007.001.006.002.012v.005l.002.008.001.006.002.011v.005l.002.01v.005l.002.011.001.005.002.011v.004l.002.01v.005l.002.013v.003l.002.01v.005l.003.013v.003l.002.011v.003l.002.013v.004l.002.011v.003l.002.013v.004l.003.012v.001l.002.014v.003l.002.014.002.014v.003l.002.014.002.014v.003l.002.013v.003l.002.012v.002l.003.014v.002l.002.014.002.015v.002l.004.03.004.03v.002l.002.014v.002l.002.013v.002l.002.014v.001c0 .005 0 .01.002.015l.001.015v.002l.004.029v.001l.004.03v.002l.004.029v.001l.003.03v.001l.002.015.002.015v.001l.002.015.002.016.001.015.004.03v.002l.003.03.002.016.002.015.001.015v.002l.002.014.002.015v.002l.003.03.003.03v.002l.004.03.003.03v.002l.003.03.001.016.003.03v.002l.003.03.003.03v.002l.003.03.002.016v.015h.001l.001.015v.002l.003.03.003.03v.002l.002.03v.001l.002.015.001.014v.002l.001.015.002.015v.016h.001l.001.015.001.015v.002l.003.03v.001l.002.03v.001l.001.015.001.014v.002l.002.014v.017l.002.014v.003l.001.013v.001l.001.014v.003l.001.014.001.014v.003l.001.014.001.014v.003l.002.014V55.502l.002.014v.017l.002.013v.017l.001.014v.003l.001.013v.002l.001.013v.003l.001.014v.002l.001.012v.004l.001.012v.004l.001.01v.017l.001.004v.014l.002.013v.018l.001.013v.005l.001.011v.015l.001.005v.011l.001.005v.014l.001.013v.004l.001.01v.017l.001.004v.014l.001.012v.014l.001.007v.015l.001.01v.006l.001.01v.015l.001.007V55.986l.001.012V56.017l.001.011v.014l.001.006V56.066l.001.007v.023l.001.008v.023l.001.008v.016l.001.007v.024l.001.007v.024l.001.01v.032l.001.006V56.29l.001.009V56.33l.001.004v.019l.001.027v.033l.001.017V56.473l.001.016v.034l.001.028v.083l.001.01v.01l-1 .008c-.01-1.265-.148-2.534-.409-3.771l.979-.207zm-.917 7.756l.982.19-.001.006-.002.007v.006l-.003.009-.001.007-.002.009v.005l-.003.01-.001.007-.002.008v.005l-.003.012-.001.005-.002.008v.006c-.002.003-.002.007-.003.01l-.001.007-.002.007v.006c-.002.003-.002.007-.003.01l-.001.007-.002.008-.001.005-.002.011-.001.006-.002.009-.001.004-.003.012v.005l-.002.01-.002.005-.002.01v.005l-.003.01-.001.006-.002.01-.001.004-.003.012v.005l-.002.008-.001.006-.003.011v.005l-.003.009v.004c-.002.004-.002.009-.003.013l-.001.004-.002.01-.001.004-.003.012v.004l-.003.01v.004l-.003.012-.001.005-.002.009-.001.005-.003.011v.005c-.002.003-.002.006-.003.01l-.001.005-.002.01-.001.005-.003.01-.001.006-.002.01-.001.004-.003.012v.004l-.003.01v.004l-.003.012-.001.004-.003.01v.004l-.003.012-.001.005-.002.01-.001.003-.003.012-.001.006-.002.008-.001.005-.003.012v.004l-.003.01v.003l-.004.013v.004l-.003.011v.003l-.004.012v.005c-.002.003-.002.007-.003.01l-.001.005-.003.01v.005l-.003.01-.002.006-.002.009v.005l-.004.012v.004l-.003.009-.001.005-.003.012v.005c-.002.002-.002.005-.003.008l-.001.005-.003.012-.001.005-.002.008-.001.005-.003.011-.001.006-.002.008-.002.006-.002.01-.002.006-.002.009-.001.006-.003.01-.001.005-.002.008-.002.009-.002.007-.001.007-.002.007-.003.01-.001.006-.002.006-.002.01-.002.007-.002.007-.001.006-.003.011-.001.006-.002.007-.002.006-.002.01-.002.007-.002.007-.001.006-.003.01-.002.008-.001.005c0 .004-.002.007-.003.01l-.001.008-.002.006-.002.007-.002.01-.002.007-.002.006-.001.007-.003.01-.002.006c0 .003 0 .005-.002.007l-.001.006-.003.012-.001.005-.002.007-.002.007-.003.01-.001.006-.002.007-.002.008-.002.009-.002.006-.002.007-.003.01-.001.007-.002.006-.002.006c0 .004-.002.008-.003.011l-.001.007-.002.005c0 .005-.002.008-.003.013l-.001.005-.002.007-.002.005-.003.013-.001.004-.002.008-.002.004c0 .005-.002.01-.003.014l-.001.004-.002.008-.001.003-.004.015-.001.003-.003.009v.002l-.004.016-.001.003-.008.027v.002l-.008.028v.001l-.008.028v.002l-.008.028v.001c-.003.006-.004.013-.006.019l-.003.01-.005.019-.009.03c-.01.039-.022.078-.034.117-.183.63-.397 1.251-.644 1.864v.001l-.007.018-.004.01v.001l-.008.017v.001l-.004.01-.007.017v.002l-.004.009-.007.017-.002.004-.01.024-.002.005-.003.007-.004.01-.003.007-.002.005-.004.01-.003.007v.002l-.925-.382c.483-1.169.85-2.39 1.092-3.633zm-2.88 7.061l.867.5-1.995 3.466-.867-.499 1.995-3.467zm-3.99 6.934l.866.499-1.995 3.467-.867-.5 1.996-3.466zm-3.99 6.934l.866.498-.974 1.693-.012.02-.001.002-.004.008-.001.001-.003.005-.007.012v.001l-.993 1.725-.867-.499 1.995-3.466zm-3.991 6.933l.866.5-1.32 2.292-.01.02-.01.017-.003.004-.002.003-.001.003-.002.004-.042.07v.001l-.605 1.052-.867-.499 1.996-3.467zm-3.991 6.934l.867.499-1.647 2.86-.002.004-.008.014v.001l-.004.007-.003.004-.001.003-.003.005-.002.003-.001.002-.001.001-.004.007-.02.035-.3.52-.866-.498 1.995-3.467zm-3.99 6.934l.866.498-.54.938-.005.01-.002.002-.004.007-.001.003-.004.007-.001.002-.005.008-.001.002-.005.008v.001l-.006.01c-.481.829-1.016 1.615-1.6 2.355l-.785-.62c.57-.723 1.093-1.494 1.553-2.294l.54-.937zm-4.729 5.96l.646.763c-.067.057-.135.114-.204.17l-.024.02-.024.02h-.001l-.011.01h-.002l-.009.008-.003.003-.01.008-.003.002-.008.007-.003.002-.01.008-.004.004-.006.005c-.002 0-.003.002-.004.003l-.01.007c0 .002-.003.003-.004.005l-.006.004-.008.007c-.002 0-.003.002-.005.004l-.006.004-.004.004-.01.008-.003.002-.007.006-.002.001-.013.01-.002.003-.023.018-.024.019c-.892.711-1.84 1.343-2.837 1.89l-.481-.875c1.108-.61 2.16-1.334 3.125-2.15zm-6.616 3.636l.298.955c-1.263.395-2.574.666-3.911.804l-.103-.995c1.259-.13 2.509-.386 3.716-.764zm-11.61.864h4v1h-4v-1zm-8 0h4v1h-4v-1zm-8 0h4v1h-4v-1zm-8 0h4v1h-4v-1zm-8 0h4v1h-4v-1zm-7.796-.32c1.142.212 2.311.32 3.475.32h.321v1H44.221h-.043-.057-.003l-.012-.001h-.014-.016H44.049 44.015l-.01-.001h-.058l-.004-.001H43.887l-.003-.001h-.044l-.008-.001h-.036l-.006-.001H43.754l-.008-.001h-.029l-.006-.001h-.03l-.007-.001h-.023l-.006-.001h-.03l-.007-.001h-.023l-.007-.001H43.56l-.012-.001H43.53l-.007-.001h-.018l-.005-.001h-.025l-.005-.001h-.02l-.003-.001h-.016-.003l-.009-.001h-.003l-.027-.002H43.376l-.02-.001h-.01-.002l-.03-.002h-.01-.001l-.03-.002h-.001l-.041-.002-.031-.002c-.877-.046-1.743-.15-2.594-.308l.183-.984zm-7-2.829c1.055.698 2.185 1.291 3.358 1.765l-.375.928c-.154-.063-.308-.127-.461-.194l-.029-.012-.028-.012-.001-.001-.014-.006-.013-.006h-.002l-.013-.006-.002-.001-.012-.005-.002-.001-.012-.006-.003-.001-.011-.005h-.002l-.012-.006-.004-.002-.01-.004-.004-.002-.01-.005c-.002 0-.003 0-.005-.002l-.01-.004-.005-.003c-.003 0-.005-.002-.008-.003l-.005-.002-.008-.004-.009-.004-.006-.002-.006-.003-.01-.005-.006-.002-.006-.003-.006-.003-.01-.004-.006-.003-.006-.003-.01-.004-.006-.003-.007-.003-.005-.002-.011-.006-.005-.002-.007-.003-.004-.002-.014-.006-.002-.001-.009-.004-.017-.008h-.002c-.009-.005-.018-.01-.027-.013-.908-.42-1.783-.906-2.618-1.455h-.002l-.024-.017-.007-.005.55-.834zm-5.346-5.33c.7 1.053 1.51 2.04 2.405 2.933l-.706.708-.212-.214-.02-.021-.003-.003-.01-.01-.003-.003-.005-.006-.004-.003-.009-.01-.003-.004-.006-.005-.004-.004-.007-.008-.005-.005-.005-.005-.005-.005-.006-.006-.006-.007-.004-.004-.006-.007-.005-.004-.006-.007-.004-.004-.009-.01h-.001l-.008-.01-.003-.002-.01-.01-.009-.01-.002-.002-.01-.01-.01-.011v-.001l-.021-.022h-.001c-.771-.817-1.478-1.704-2.11-2.655l.833-.553zm-3.992-6.858l1.995 3.467-.867.499-.562-.977-.001-.002-.01-.016-.003-.006-.002-.004-.003-.006-.002-.003-.004-.006-.001-.003-.04-.07-.002-.003-.002-.002-1.363-2.369.867-.499zm-3.99-6.933l1.994 3.466-.866.5-.888-1.543-.001-.002-.008-.013v-.002l-.014-.023-.004-.008-.002-.003-.002-.003c0-.002-.002-.003-.003-.004v-.002l-.005-.008-.001-.002-.006-.01-.005-.01-.012-.019v-.002l-.023-.04-1.022-1.774.867-.498zm-3.991-6.934l1.995 3.467-.867.499-1.21-2.104-.001-.001-.002-.003-.005-.008v-.002l-.006-.009-.004-.008-.002-.003-.045-.078c-.39-.68-.72-1.251-.72-1.251l.867-.499zm-3.991-6.934l1.995 3.467-.866.499-1.996-3.467.867-.499zm-3.99-6.933l1.995 3.467-.867.498-1.995-3.466.866-.5zm-3.504-6.936c.386 1.203.896 2.374 1.515 3.478l-.873.489c-.13-.235-.257-.47-.378-.71 0 0 0 .001 0 0l-.014-.027-.014-.028H5.22l-.007-.014-.006-.014-.001-.001-.007-.013v-.001l-.007-.012v-.002l-.007-.013v-.002c-.003-.003-.004-.007-.006-.011l-.001-.002-.007-.013v-.002l-.006-.01-.002-.004-.005-.012-.002-.003-.005-.01-.001-.003-.006-.012-.002-.003-.005-.01-.001-.003-.006-.012-.002-.003-.005-.01-.001-.003-.006-.012-.002-.003-.005-.01v-.003l-.006-.011-.003-.005-.004-.009-.002-.004-.005-.01c0-.002-.002-.004-.003-.005l-.004-.01-.002-.003-.005-.01-.002-.006-.004-.007-.004-.008-.003-.007-.003-.006-.004-.008-.003-.007-.004-.007-.002-.006-.005-.009-.003-.006c0-.003-.002-.005-.003-.008l-.003-.005-.005-.01-.002-.005-.004-.008-.002-.005-.005-.01-.003-.006-.003-.007-.003-.006-.003-.007-.005-.01-.002-.005-.003-.006-.004-.007-.004-.01-.003-.005-.003-.006-.004-.01-.003-.006-.003-.006-.003-.007-.004-.01-.004-.006-.002-.005-.007-.014v-.002l-.004-.008-.002-.003-.007-.015v-.002l-.004-.008-.002-.004-.006-.013-.002-.004-.003-.007-.002-.004-.006-.014-.002-.003-.003-.007-.002-.005-.006-.013-.002-.003c0-.003-.002-.005-.003-.008l-.002-.003-.006-.015-.002-.002c0-.003-.002-.005-.003-.008l-.002-.004-.006-.013-.002-.004-.003-.008-.001-.002-.007-.015-.001-.003-.004-.008-.001-.003-.007-.014-.001-.003-.004-.008-.001-.003-.006-.014-.002-.004-.003-.007-.001-.003-.007-.015-.002-.003c0-.003-.002-.005-.003-.008l-.008-.017-.001-.003-.004-.008v-.003l-.007-.014-.002-.004-.011-.025-.001-.003-.011-.025-.002-.004-.011-.025-.001-.002-.012-.026v-.003l-.012-.026v-.002c-.005-.008-.008-.017-.012-.026l-.001-.003-.007-.015v-.002l-.004-.008-.002-.004-.006-.014-.001-.003-.004-.008v-.002l-.007-.016-.001-.002-.004-.008-.001-.003-.007-.015v-.003l-.004-.007-.002-.005-.005-.012-.002-.004-.003-.008-.001-.003-.006-.014-.002-.004-.003-.008-.001-.003-.006-.013-.002-.005-.003-.007v-.002l-.007-.015-.002-.004-.003-.008-.002-.004-.005-.012-.002-.005-.003-.007-.004-.01-.003-.007-.002-.005-.003-.007-.003-.008-.004-.008-.002-.006-.004-.008c0-.003-.002-.006-.003-.008 0-.003-.002-.004-.003-.007l-.002-.006-.002-.006-.005-.01-.002-.007-.002-.005-.005-.01-.002-.007-.003-.006-.002-.005-.005-.013-.002-.004-.003-.007-.002-.005-.004-.012-.003-.005-.002-.007-.003-.006-.004-.01-.002-.006-.003-.006-.002-.006-.004-.01-.003-.007-.002-.006-.003-.006-.004-.01-.002-.006-.003-.007-.002-.006-.005-.01-.002-.006-.002-.007-.003-.007-.004-.009-.002-.006-.003-.006c0-.003-.002-.005-.003-.007 0-.004-.002-.006-.003-.01l-.003-.006-.002-.006-.004-.009-.002-.007-.003-.007-.002-.006-.004-.01-.003-.006-.002-.007-.003-.006-.004-.01-.002-.006-.003-.007-.002-.005-.004-.011-.002-.006-.003-.006-.002-.007-.004-.01-.003-.006-.002-.006-.002-.006-.004-.01-.003-.007-.002-.007-.002-.005-.005-.011c0-.002 0-.004-.002-.005l-.002-.008-.002-.005-.004-.01-.003-.006-.002-.008-.003-.007-.003-.009-.003-.006-.002-.007-.003-.007-.003-.008-.003-.007-.002-.006-.003-.009-.003-.008-.002-.005-.004-.009-.002-.005c0-.004-.002-.007-.003-.01l-.002-.005-.004-.01-.001-.004-.004-.01-.002-.005-.004-.01-.001-.005-.004-.009-.002-.005-.004-.01-.001-.005-.004-.01-.001-.004-.005-.011-.001-.004-.003-.01-.002-.004-.004-.011-.002-.004-.003-.01-.002-.004-.004-.012-.001-.003-.003-.01-.002-.004-.004-.011-.002-.005-.003-.009-.002-.004-.004-.012-.001-.004-.004-.009-.001-.004-.004-.012-.002-.004-.003-.009-.002-.004-.004-.012-.001-.004-.004-.01v-.003l-.005-.012-.001-.004-.004-.01-.001-.003-.005-.012v-.004l-.004-.01-.001-.003-.005-.012-.001-.004-.004-.01v-.003l-.005-.013-.001-.004-.004-.01-.001-.004-.004-.01-.002-.005-.003-.01-.002-.004c0-.004-.002-.008-.003-.011l-.002-.004-.004-.013-.004-.013-.002-.003-.004-.013v-.002l-.005-.01v-.004l-.005-.013v-.002l-.005-.011v-.003l-.005-.013v-.002l-.005-.012v-.003l-.005-.012v-.003l-.004-.01-.002-.004-.004-.013v-.002l-.004-.011-.001-.003-.005-.013v-.003l-.004-.01-.001-.004-.004-.012-.002-.004-.003-.01-.001-.003-.004-.012-.001-.004-.004-.01v-.003l-.005-.012-.001-.004-.003-.01-.001-.004-.004-.012-.002-.004-.003-.01-.001-.003-.004-.012-.001-.004-.004-.01v-.003l-.004-.012-.002-.005-.003-.01-.002-.004-.003-.01-.001-.005-.004-.01-.001-.005-.003-.01-.001-.002.952-.306zm-1.83-7.593l.997.09c-.113 1.26-.1 2.536.04 3.793l-.994.11v-.008l-.001-.004-.001-.008v-.005l-.002-.01v-.008l-.001-.007-.001-.007-.001-.008-.001-.01v-.005l-.002-.01v-.006l-.001-.01v-.004l-.002-.013v-.003l-.002-.012v-.002l-.001-.014v-.002l-.002-.014-.002-.015v-.002l-.003-.03-.003-.03v-.002c-.09-.917-.117-1.84-.08-2.76v-.002l.001-.03v-.001-.015l.001-.001v-.013-.003l.001-.013v-.003-.012l.001-.003v-.013-.004l.001-.01v-.004l.001-.012v-.005-.01l.001-.006v-.01-.006l.001-.009v-.008l.001-.007v-.007-.007l.001-.011v-.005l.002-.027v-.003l.002-.028v-.001c.012-.232.029-.464.05-.695zm2.268-7.616l.883.47c-.596 1.117-1.08 2.298-1.44 3.51l-.96-.286c.225-.752.494-1.494.808-2.221l.044-.1.025-.058.013-.029.012-.028.013-.029.026-.057.013-.028v-.001l.006-.014v-.001l.007-.013.006-.014v-.001l.007-.013V48.5l.006-.014v-.001l.007-.013.006-.014.001-.002.006-.012v-.001l.006-.013.001-.003.006-.012.006-.014.001-.002.013-.026v-.002l.013-.026.001-.003.012-.026.001-.002.012-.026.002-.003.012-.025.001-.003.006-.013v-.001l.006-.012.001-.002.007-.013v-.002l.006-.01.001-.004.006-.012v-.002l.006-.011.001-.003.007-.012v-.002l.006-.011.001-.003.006-.012.001-.003.005-.01.002-.004.006-.011.001-.004.005-.01.001-.003.006-.011.002-.004.005-.01.001-.003.006-.012.002-.003.005-.01v-.003l.007-.012.001-.003.006-.012.006-.013.002-.004.005-.01.002-.004.005-.01.002-.004.006-.011.001-.003.005-.01.002-.004.005-.01.003-.005.004-.009.002-.004.006-.01.002-.006.004-.008.002-.005.006-.01.002-.005.004-.007.002-.006.006-.01.002-.005.004-.008.002-.005.006-.01.003-.006.003-.006.003-.006.005-.01.003-.006.003-.006.004-.007.004-.009.003-.006.003-.006.003-.006.005-.01.003-.005.004-.008.003-.006.004-.009.004-.006.003-.006.005-.01.003-.005.003-.007c0-.002.002-.003.003-.005l.005-.011.003-.005.004-.007.001-.003.007-.014.002-.003.004-.008.002-.003.007-.014.001-.003.004-.008.002-.003.007-.013.002-.004.004-.008.001-.002.008-.015.001-.002.014-.026v-.002l.014-.026.001-.001.014-.026v-.002l.015-.026v-.001l.004-.007zm3.981-6.939l.867.499-1.995 3.467-.867-.5.277-.481.016-.028.003-.004.002-.005.001-.001.002-.003.001-.003.002-.002.002-.004.002-.004.011-.019.003-.006 1.673-2.906zm3.99-6.934l.868.5-1.996 3.466-.866-.499.609-1.058v-.001l.005-.01.005-.007.003-.005c0-.002.002-.003.003-.005l.001-.002.002-.003.007-.013.002-.004.003-.005.006-.01.002-.004.001-.001.002-.004v-.001l.004-.006.003-.005.001-.002.001-.002 1.335-2.319zm3.991-6.933l.867.499-1.995 3.466-.867-.498.928-1.612.01-.02.002-.002.002-.003v-.001l.002-.003.02-.034.006-.01v-.001l.012-.02 1.013-1.761zm3.991-6.934l.867.499-1.996 3.467-.866-.5 1.274-2.214.001-.001.01-.019h.001l.01-.02h.001l.011-.019.005-.008.002-.003v-.002l.68-1.18zm3.99-6.934l.867.5-1.995 3.466-.867-.499 1.996-3.467zm4.477-6.598l.721.693c-.876.911-1.664 1.915-2.342 2.984l-.844-.536c.244-.385.5-.76.768-1.124l.018-.025.018-.024.001-.001.018-.025.018-.024.037-.05.038-.05.018-.024.019-.025.05-.066.019-.024.019-.025.019-.024.019-.025c.435-.562.898-1.097 1.386-1.605zM36.38 1.62l.394.919c-1.162.499-2.28 1.117-3.32 1.837l-.569-.823c.525-.363 1.067-.7 1.623-1.011l.002-.001.025-.014.002-.001.025-.014.026-.015h.001l.016-.01h.002l.008-.005.017-.009.002-.001.008-.004.016-.01.003-.001.01-.006c.003 0 .004-.002.006-.003l.007-.004.004-.002.011-.006c.002 0 .004-.002.005-.003l.007-.003.005-.003.01-.005.006-.004.006-.003.006-.003.008-.005c.003 0 .005-.002.007-.003l.006-.003.007-.004.008-.005.006-.003.006-.003.007-.004.008-.004.007-.004.005-.002.01-.006.005-.003.007-.004.005-.002.01-.006.006-.002.007-.004.004-.003.01-.005.006-.003.008-.004.005-.003.009-.005.005-.002.009-.005.005-.002.008-.005c.002 0 .004-.002.005-.003l.01-.005.005-.002.008-.005.005-.002.01-.006.005-.002.007-.004.005-.002.01-.006.006-.003.007-.003.005-.003.01-.005.005-.003.008-.004.004-.002.01-.006.005-.002.009-.004.005-.003.01-.005.004-.002.01-.006.003-.001.01-.005.004-.002.01-.006.005-.002.008-.004.005-.002.01-.006.005-.002.008-.004.004-.002.011-.006.005-.002.008-.004.004-.003.01-.005.005-.002.009-.005.004-.002.01-.005.005-.002.01-.005.004-.002.009-.005.005-.002.01-.006.004-.002.008-.004.005-.002.011-.006c.002 0 .003 0 .004-.002l.008-.004.005-.002.01-.005.005-.003.008-.003.005-.003.01-.005c.002 0 .004-.002.005-.003.003 0 .005-.002.008-.003l.005-.003.01-.005.005-.002.008-.004.007-.004.007-.003.006-.003.007-.004c.003 0 .006-.003.009-.004l.006-.003.006-.003c.002 0 .004-.002.005-.003l.012-.005.004-.002.007-.004.004-.001.012-.007.005-.002.014-.007h.002l.007-.004.004-.002.013-.006.003-.002.008-.004.003-.001.015-.007.002-.001.008-.004.002-.001.015-.007.002-.002.009-.003.002-.001.015-.008h.002l.026-.013h.001c.01-.005.018-.01.027-.013.229-.11.459-.213.692-.313zM44.159 0l.005 1c-1.266.007-2.536.14-3.773.398L40.187.42l.304-.06.06-.012h.001l.03-.005.03-.006h.001l.03-.006.015-.003h.001l.013-.002h.002l.014-.003h.002l.013-.003h.002l.014-.003h.002l.012-.002h.002L40.75.31h.002l.013-.003h.002c.005 0 .009-.002.014-.003h.002l.012-.002h.003L40.81.3h.003l.011-.002h.003l.013-.003h.004l.01-.003h.004L40.87.29l.003-.001.011-.002h.003l.013-.003h.005l.01-.002h.003l.013-.003h.004l.01-.002h.004l.012-.003h.004l.01-.002h.004c.004-.002.008-.002.013-.003h.004l.01-.002.005-.001.011-.002h.005l.01-.002.006-.001.009-.002h.006l.008-.002.008-.002h.009l.006-.002.008-.001.008-.001.008-.002h.006l.009-.002.008-.001.008-.002h.006l.007-.002.01-.001.007-.001.007-.001.007-.002.01-.001.007-.001.006-.001.008-.001.01-.002h.006l.007-.002.008-.001.01-.002h.006l.007-.002h.008l.01-.002.006-.001.007-.001.006-.001.011-.002h.006l.007-.002h.007l.011-.002.006-.001.007-.001.006-.001.012-.002h.005l.008-.002h.005l.013-.002.005-.001.007-.001.01-.001.008-.002h.006l.007-.002.01-.001.008-.001h.006l.007-.002.01-.001.008-.001.005-.001.01-.002h.008l.008-.002h.005l.011-.002h.007l.007-.002h.006l.012-.002.006-.001.007-.001h.005l.01-.002.008-.001.008-.001h.005l.014-.003h.004L41.66.17h.004l.014-.003h.005l.008-.001h.005l.014-.003h.003l.009-.001h.004l.014-.003h.004l.008-.001h.005l.013-.002.005-.001h.008l.005-.002.013-.001h.005l.008-.002h.005l.013-.002h.005l.008-.002h.005l.012-.002h.006l.007-.001h.006l.012-.002L41.9.14l.007-.001h.006l.012-.002h.006l.007-.002h.006l.012-.002h.006l.007-.001h.006l.012-.002h.006L42 .127h.006l.012-.002h.005l.008-.001h.006l.012-.002h.005l.008-.002h.006l.012-.002h.005l.008-.001h.007l.01-.002h.006l.008-.001.005-.001.013-.001h.005l.008-.002h.004l.014-.002h.012l.009-.002h.01l.006-.001.006-.001.012-.001h.005l.008-.002h.006L42.259.1 42.264.1h.008l.006-.001.011-.001.007-.001h.007l.006-.001.012-.002H42.334l.006-.001.012-.002H42.365l.006-.001.012-.002H42.397l.005-.001.012-.001h.005l.01-.002h.004l.012-.001h.005l.01-.002h.004l.012-.001h.005l.01-.001h.004l.013-.002h.004l.01-.001h.004l.013-.002h.015l.003-.001.013-.001h.004l.011-.002h.016l.004-.001.012-.001h.002l.013-.001h.004l.012-.002h.003l.013-.001h.004l.013-.001.014-.002h.017l.014-.002h.003l.029-.002h.002l.015-.002h.016l.03-.003h.002l.014-.001.015-.001h.002l.03-.002.031-.003c.413-.027.827-.043 1.244-.045z" class="cls-10" transform="rotate(90 74.13 216.32)"/>
            </g>
        </g>
        <g filter="url(#다각형_16)" transform="translate(1106 358)">
            <g id="다각형_16-2" class="cls-6" data-name="다각형 16">
                <path d="M168.28 0a20 20 0 0 1 17.334 10.024l48.438 84.16a20 20 0 0 1 0 19.953L185.614 198.3a20 20 0 0 1-17.334 10.024H71.514A20 20 0 0 1 54.18 198.3L5.742 114.137a20 20 0 0 1 0-19.953l48.438-84.16A20 20 0 0 1 71.514 0z" class="cls-8" transform="rotate(90 125.055 212.125)"/>
                <path d="M71.514 0h4v1h-4V0zm8 0h4v1h-4V0zm8 0h4v1h-4V0zm8 0h4v1h-4V0zm8 0h4v1h-4V0zm8 0h4v1h-4V0zm8 0h4v1h-4V0zm8 0h4v1h-4V0zm8 0h4v1h-4V0zm8 0h4v1h-4V0zm8 0h4v1h-4V0zm8 0h4v1h-4V0zm8 0H168.47l.018.001h.067l.018.001h.045l.016.001h.043l.003.001h.042l.018.001H168.763l.017.001h.026l.015.001H168.843l.005.001H168.87l.014.001H168.912l.012.001h.008l.013.001h.023l.007.001h.018l.015.001h.02l.01.001h.01l.008.001h.023l.012.001h.01l.01.001h.008l.014.001h.018l.014.002h.031l.01.001h.007l.014.001h.009l.01.001h.009l.013.001h.007l.016.001h.007l.01.001h.006l.018.002h.024l.005.001h.01l.006.001.018.001h.005l.035.002h.003l.021.002h.003l.036.002h.004l.021.002h.002l.037.002h.001l.062.004c.291.02.58.045.867.077l.063.007.037.005c.009 0 .017.002.025.003l.037.004h.003l.02.003h.004l.034.004.005.001.018.002h.005l.01.002h.007c.005.002.01.002.016.003h.007l.014.003h.009l.01.002.007.001.015.002h.007l.01.002.013.002h.008l.01.002.011.002.011.001.008.001.014.002.008.001.011.002h.008l.013.002.007.001.015.002.006.001.014.002h.004l.017.003h.004l.018.003h.002l.018.003h.001l.02.003h.002l.04.006c.12.017.241.036.362.055l-.161.987C170.332 1.083 169.303 1 168.28 1h-.766V0zm7.843 1.294c.256.096.51.198.76.305h.001l.073.032h.002l.054.024.003.001.015.007.003.001.035.015.003.002.015.006.003.002.035.015.003.001.014.006.005.003.013.006.003.001.017.008.005.002.012.005.006.003.011.005.006.002.015.007.006.003.012.005.007.003.01.005.007.003.01.005.01.004.011.005.01.004.006.003.01.005.006.003.034.015.006.003.01.005.006.002.01.005.003.001.024.011.003.002.011.005.005.002.011.005.002.001.039.018.003.002.013.006h.002l.04.02.015.006c.73.345 1.439.733 2.121 1.163l-.532.846c-1.071-.674-2.214-1.242-3.397-1.69l.354-.935zm6.726 4.232c.116.11.23.222.344.335 0 .001 0 .002.002.002l.01.01v.001l.02.019s0 .002.002.003l.008.008.004.004.008.008.005.005.014.014.005.005.007.007.005.006.007.007.007.007.008.008.01.01.005.005.007.008.006.005.008.008.005.006.012.012.004.004.009.01c.002 0 .003.002.005.004l.009.01.004.003.012.013.004.004.01.01.003.004.01.01.003.003.013.014h.001l.012.013.003.004.012.011.002.002.026.028.002.002.012.012.002.003.027.028.014.015.042.044.001.001.041.044h.001l.042.045c.635.683 1.225 1.412 1.765 2.187l-.82.572c-.723-1.038-1.555-2.006-2.47-2.88l.69-.723zm4.66 6.458l1.995 3.467-.866.499-1.996-3.467.867-.499zm3.99 6.934l1.996 3.467-.867.499-1.995-3.467.866-.499zm3.991 6.934l1.995 3.466-.866.5-1.996-3.468.867-.498zm3.99 6.933s.05.084.13.227l.002.002.011.019.002.004.002.002v.002l.003.003.002.004s0 .002.002.003v.001l.002.003.005.01.002.003.002.003v.001l1.83 3.18-.866.499-1.995-3.467.867-.499zm3.991 6.934l1.094 1.9v.001l.004.007.898 1.559-.867.499-1.995-3.467.866-.5zm3.99 6.934l1.512 2.626.002.002.008.014.003.006.001.002.47.816-.867.5-1.995-3.468.867-.498zm3.991 6.933l1.996 3.467-.867.499-1.995-3.467.866-.499zm3.991 6.934l1.995 3.467-.866.498-1.996-3.466.867-.5zm3.99 6.933l1.996 3.467-.867.5-1.995-3.468.867-.499zm3.991 6.934l1.995 3.467-.866.499-1.996-3.467.867-.499zm3.99 6.934l1.996 3.467-.867.498-1.995-3.466.867-.5zm3.991 6.933l.727 1.263 1.269 2.204-.867.499-1.995-3.467.866-.499zm3.962 6.95c0 .002 0 .003.002.004l.001.004.008.014.001.003.018.036v.001l.009.016v.003c.01.017.019.036.027.054l.001.001c.478.972.872 1.973 1.183 2.993v.001l.012.038v.002l.005.017v.002l.006.018.006.02v.002l.006.016v.003l.006.017v.002l.006.018v.002l.005.016.001.005.004.014.002.004.005.018v.002l.005.015.002.007.003.012.002.006.004.015.002.006.004.013.002.007.003.01.002.008.003.012.003.008.004.014.002.008.003.01.002.008.002.008.007.023v.001l.003.011.002.006.003.011.002.005.01.039.001.004.004.013v.003l.012.042.004.015v.002l.013.043-.965.262c-.33-1.22-.786-2.413-1.352-3.545l.894-.448zm2.076 7.671l.002.034v.004l.001.015v.004l.001.015v.004l.002.019v.024l.002.013v.02l.001.007.001.015v.007l.001.01v.009l.001.01v.008l.001.017v.007l.001.011v.008l.001.01v.008l.001.01v.016l.001.009v.01l.001.007v.01l.001.008v.018l.001.008v.01l.001.007v.018l.001.01v.005l.001.023v.006l.001.01v.019l.001.004.001.026v.02l.001.012v.004l.002.042v.02l.001.013.001.045v.003l.001.014v.002l.001.045v.017l.002.06v.002l.002.062c.021 1.041-.039 2.083-.18 3.117l-.99-.135c.17-1.253.216-2.53.135-3.792l.998-.064zm-2.02 7.544l.945.33c-.15.43-.315.855-.495 1.276l-.016.037v.002l-.008.018-.016.037v.001l-.017.037v.001l-.008.018-.008.019-.001.001-.007.016-.001.003-.016.035-.001.003-.016.035-.001.003-.007.016-.001.002-.008.017-.001.003-.007.015-.001.004-.008.017-.008.016-.001.005-.007.015-.001.002-.008.017-.001.003-.007.014-.002.004-.007.017-.001.002-.007.015-.002.004-.008.017-.007.017-.003.005-.006.013-.001.004-.008.016-.002.004-.006.013-.002.005-.008.016-.001.003-.007.014-.002.005-.006.013-.002.004-.007.016-.003.005-.005.012-.003.006-.007.016-.002.003-.006.013-.003.006-.006.013-.002.004-.007.015-.003.006-.006.012-.002.005-.007.015-.003.005-.005.012-.003.006-.007.013-.003.007-.005.012-.003.006-.006.011-.003.006-.007.015-.003.006-.005.011-.003.005-.007.016-.003.005-.005.012-.003.006-.006.012-.003.005-.007.014-.003.007-.005.01-.003.006-.008.016-.002.005-.006.011-.003.006-.006.013-.004.007-.006.012-.003.006-.005.012-.003.005-.007.015-.003.005-.006.012-.003.006-.008.015c0 .001 0 .003-.002.004l-.006.012-.003.006-.006.013-.002.004-.008.015-.003.006-.006.011-.002.005-.008.016-.002.005-.006.012-.003.005-.007.014-.003.005-.007.013-.002.006-.007.013-.002.003-.008.016-.002.005-.007.012-.002.005-.009.016-.001.003-.007.014-.003.004-.007.015-.001.002-.009.016-.002.005-.007.012-.002.005-.008.015-.003.005-.006.012c0 .002-.002.003-.003.005l-.008.015-.001.003-.008.015-.002.004-.007.014-.002.003-.009.016-.002.005-.006.011-.003.006-.009.015c0 .002 0 .003-.002.004l-.006.012-.003.006-.007.013-.002.003-.008.016-.003.005-.007.012-.002.005-.008.016-.003.004-.007.012-.002.005-.009.016v.001l-.009.016-.002.004-.007.013-.002.004-.01.016-.001.004-.007.013-.003.004-.008.016-.002.003-.007.013-.003.005-.008.015-.001.002-.009.015-.003.006-.007.012-.002.004-.009.016-.001.003-.008.014-.002.004-.01.016-.009.017-.002.003-.008.014-.001.003-.01.017-.001.003-.008.013-.002.005-.01.016v.002l-.009.014-.002.004-.008.015-.001.002-.01.016-.002.004-.007.013-.002.004-.01.016-.002.003-.007.014-.003.004-.009.016-.134.233-.867-.499.134-.233c.59-1.023 1.085-2.106 1.473-3.219zm-3.601 6.92l.867.498-1.996 3.467-.866-.5 1.995-3.466zm-3.99 6.933l.866.499-1.995 3.466-.867-.498 1.995-3.467zm-3.991 6.933l.866.5-1.995 3.466-.867-.499 1.996-3.467zm-3.99 6.934l.866.499-1.996 3.467-.866-.5 1.995-3.466zm-3.991 6.934l.866.498-1.995 3.467-.867-.499 1.996-3.466zm-3.991 6.933l.867.5-.708 1.23-.004.005v.001l-1.284 2.23-.866-.499 1.995-3.467zm-3.99 6.934l.866.499-1.995 3.467-.867-.5 1.995-3.466zm-3.991 6.934l.866.498-1.995 3.467-.867-.499 1.996-3.466zm-3.99 6.933l.866.499-1.995 3.467-.867-.499 1.995-3.467zm-3.991 6.934l.866.499-1.995 3.466-.867-.498 1.996-3.467zm-3.991 6.933l.867.5-1.485 2.58-.005.007-.004.007-.502.872-.866-.499 1.995-3.467zm-3.99 6.934l.866.499-1.995 3.467-.867-.5 1.995-3.466zm-4.112 6.668l.778.629c-.63.779-1.315 1.505-2.047 2.174l-.011.01-.001.001-.034.03v.001l-.011.01-.001.001-.045.04-.002.002-.044.04-.002.002-.044.039-.003.003-.01.008-.002.002-.03.027-.004.004-.01.008-.003.003-.03.026-.004.004-.009.008-.004.003-.009.008-.002.002-.018.015-.005.005-.007.006-.006.006-.008.006-.007.007-.01.008-.009.008-.006.005-.008.007-.006.005-.008.008-.006.004-.012.011-.006.005-.008.007-.006.005-.009.008-.005.004-.013.012c-.002 0-.003.002-.004.003l-.01.009-.005.004-.01.008-.005.004-.013.012h-.002l-.012.012c-.002 0-.003.002-.005.003l-.01.01-.004.002-.029.025-.002.002-.012.01-.003.003-.03.024-.001.002-.014.011-.002.002-.045.038h-.001l-.066.055-.637-.77c.976-.806 1.874-1.713 2.67-2.696zm-5.82 4.807l.47.882c-.417.222-.842.43-1.274.623h-.001l-.013.006-.002.001-.039.017-.004.002-.01.005c-.003 0-.005.002-.007.003l-.01.004-.005.002-.018.008-.007.003-.01.004-.007.004-.009.004-.007.003-.017.007-.007.003-.008.004-.01.004-.007.003-.01.004-.006.003-.016.007-.006.002-.012.005-.005.003-.012.005-.006.002-.016.007-.002.001-.015.007-.005.002-.013.005-.004.002-.018.007-.017.008-.003.001-.015.006-.004.002-.016.007-.02.008-.017.007-.003.001-.015.007h-.003l-.036.016h-.001c-.628.26-1.27.49-1.925.684l-.286-.958c1.211-.362 2.392-.847 3.508-1.443zm-7.234 2.16l.09.997c-.273.024-.547.043-.822.057l-.042.002-.041.002-.041.002h-.002l-.04.001h-.002l-.04.002H169.035h-.002l-.02.002h-.022l-.019.001H168.951h-.003l-.019.001h-.002l-.017.001h-.023-.002l-.017.001h-.004l-.019.001h-.019-.004l-.018.001H168.78l-.038.002h-.046l-.019.001h-.04-.002l-.019.001h-.046l-.016.001h-.065-.002l-.017.001h-.172l-.019.001h-2.194v-1h2.194c.57 0 1.147-.026 1.714-.077zm-11.908.078h4v1h-4v-1zm-8 0h4v1h-4v-1zm-8 0h4v1h-4v-1zm-8 0h4v1h-4v-1zm-8 0h4v1h-4v-1zm-8 0h4v1h-4v-1zm-8 0h4v1h-4v-1zm-8 0h4v1h-4v-1zm-8 0h4v1h-4v-1zm-8 0h4v1h-4v-1zm-8 0h4v1h-4v-1zm-7.928-.048c.45.032.905.048 1.356.048h2.572v1H71.33l-.01-.001h-.077l-.007-.001h-.019l-.076-.002h-.068l-.016-.001H71.03l-.017-.001h-.024l-.019-.001h-.002c-.294-.008-.588-.023-.88-.044l.07-.997zm-7.272-2.024c1.127.575 2.316 1.038 3.534 1.377l-.268.963-.02-.005h-.002l-.018-.006-.04-.011-.019-.005h-.001c-1.254-.357-2.467-.834-3.62-1.422l.454-.891zm-5.912-4.696c.814.968 1.73 1.857 2.72 2.644l-.622.783c-.945-.75-1.825-1.59-2.627-2.508l-.001-.001-.04-.046-.002-.002-.009-.01-.001-.002-.028-.032-.003-.004-.008-.01-.004-.003-.025-.03-.004-.005-.007-.008-.005-.006-.007-.008-.005-.005-.012-.015-.005-.005-.007-.008-.005-.006-.006-.008-.007-.008-.006-.007-.01-.011-.005-.006-.007-.009-.005-.006-.008-.01-.003-.003-.001-.001.765-.644zm-4.15-6.617l1.995 3.467-.867.499-1.995-3.467.866-.499zm-3.991-6.933l1.995 3.466-.867.5-1.995-3.468.867-.498zm-3.99-6.934l1.994 3.467-.866.499-1.996-3.467.867-.5zm-3.991-6.934l1.995 3.467-.867.499-.855-1.486-.01-.017-.002-.004-1.128-1.96.867-.499zm-3.991-6.933l1.995 3.466-.866.5-1.996-3.468.867-.498zm-3.99-6.934l1.995 3.467-.867.499-.847-1.473-.005-.008-.009-.015v-.002l-.003-.003-.004-.008-.003-.004-.01-.016v-.004l-.022-.037-.002-.002-1.09-1.895.866-.499zm-3.991-6.934l1.995 3.467-.867.499-1.995-3.467.867-.499zm-3.99-6.933l1.994 3.467-.866.498-1.32-2.291-.001-.004-.01-.016-.001-.003-.006-.01-.658-1.142.867-.5zm-3.991-6.934l1.995 3.467-.867.499-1.995-3.467.867-.499zm-3.991-6.934L18.903 135l-.866.5-1.996-3.468.867-.499zm-3.99-6.933l1.995 3.467-.867.498-1.995-3.466.866-.5zm-3.991-6.934l1.995 3.467-.867.499-1.796-3.122-.01-.018-.013-.022-.002-.002-.005-.01-.002-.003-.167-.29.867-.499zm-3.67-6.908c.368.992.823 1.961 1.352 2.88l.323.561-.867.5-.086-.15-.005-.009-.003-.005-.002-.004-.016-.027-.002-.003v-.001l-.007-.012-.002-.004-.003-.005-.001-.001-.001-.003h-.001l-.005-.01-.004-.006-.002-.003v-.001l-.001-.002-.001-.001-.002-.003-.005-.01-.002-.003v-.001l-.023-.038v-.001l-.005-.009-.001-.002-.004-.006v-.002l-.004-.005c0-.002-.001-.002-.002-.003l-.004-.007-.013-.022-.013-.024-.002-.003-.002-.005-.01-.018H5.83l-.013-.023-.024-.042h-.001l-.036-.064c-.01-.015-.014-.024-.014-.024l-.01-.016c0-.001 0-.003-.002-.004l-.008-.015-.002-.004-.008-.013-.002-.004-.009-.015-.003-.005-.006-.012-.003-.004-.008-.014-.003-.006-.007-.012-.004-.007-.006-.01-.003-.007-.008-.013-.003-.006-.006-.01-.003-.006-.008-.014-.004-.006-.005-.01-.005-.009-.006-.01-.004-.008-.005-.009-.006-.011-.004-.008-.005-.007-.005-.01-.006-.012-.004-.006-.007-.012-.004-.009-.005-.008-.004-.007-.007-.012-.004-.008-.004-.008-.005-.01-.007-.01c0-.003-.002-.005-.003-.008l-.005-.008-.007-.012-.004-.009-.004-.006-.008-.015-.003-.006-.005-.008c0-.003-.002-.005-.003-.008l-.008-.013-.003-.006-.005-.01-.003-.005-.008-.016-.003-.005-.01-.018-.001-.003-.005-.009-.004-.006-.008-.016-.002-.004-.006-.01-.002-.004-.009-.017-.002-.005-.005-.01-.004-.007-.007-.013-.004-.007-.006-.012-.005-.008-.004-.009-.004-.007-.006-.012-.005-.009-.004-.008-.004-.008-.006-.012-.005-.008-.004-.008-.006-.012-.004-.008-.005-.008c0-.003-.002-.005-.003-.007l-.007-.013-.004-.008-.005-.01-.005-.009-.005-.01-.003-.007-.006-.012-.005-.008-.004-.009-.004-.007-.007-.014-.003-.006-.005-.01-.003-.006-.008-.015-.002-.005-.007-.013-.003-.006-.006-.012c0-.002-.002-.004-.003-.005l-.007-.015c0-.002-.002-.003-.003-.005l-.006-.012-.002-.005-.007-.015-.003-.005-.007-.013-.001-.003-.008-.015-.002-.005-.008-.016v-.001l-.008-.016-.002-.003-.008-.017-.001-.002-.008-.015-.001-.003-.008-.016-.002-.003-.008-.016v-.001l-.008-.017-.002-.003-.017-.035v-.001l-.01-.018c-.283-.586-.537-1.18-.76-1.784l.938-.347zm-2.16-7.505l.998.045c-.057 1.264.013 2.539.207 3.789l-.988.153c-.022-.14-.042-.281-.06-.422-.002-.006-.003-.013-.003-.019v-.002l-.003-.018-.003-.02v-.002l-.002-.017v-.005l-.003-.014v-.005l-.003-.017v-.003l-.002-.016v-.007l-.002-.01-.001-.009-.001-.01-.002-.012-.001-.012-.002-.01v-.007l-.002-.01v-.007l-.006-.04v-.004l-.001-.013v-.003l-.002-.014-.006-.046v-.001c-.1-.87-.144-1.744-.13-2.619v-.015-.001-.043-.005-.011-.007l.001-.01v-.01-.013-.012l.001-.008v-.01-.008-.011-.007l.001-.018v-.005-.013-.006l.001-.015v-.003l.001-.04.001-.02c.003-.101.007-.201.012-.302zm1.93-7.709l.902.431c-.545 1.142-.977 2.343-1.284 3.57l-.97-.243c.127-.509.274-1.012.442-1.512v-.001l.007-.019.013-.039.006-.018v-.001l.014-.039.006-.018v-.002l.02-.056v-.002l.007-.018.013-.038.001-.002.006-.017v-.002l.014-.036v-.004l.006-.015.001-.003c.005-.012.01-.025.013-.037l.001-.002.006-.016.001-.003.013-.037v-.001l.007-.017.001-.003.006-.015v-.004l.007-.018.001-.002.006-.015.001-.005.005-.014.002-.004.006-.017.001-.002.006-.016.002-.005.005-.013.001-.005.013-.034.002-.006.005-.012.002-.006.005-.014.002-.003.006-.017.002-.005.005-.013.002-.006.005-.013.001-.004.007-.017.002-.005.005-.013.002-.006.004-.012.003-.005L4.4 97l.002-.004.005-.014.002-.005.005-.013.002-.005.006-.017.001-.002.006-.016.002-.005.005-.012.002-.006.006-.014v-.003l.007-.017.003-.006.004-.012.003-.005.005-.014.001-.004.007-.017.002-.004.005-.013.002-.006.006-.013.001-.004.007-.018.001-.003.006-.014.002-.005.005-.013.002-.005.007-.017v-.001l.007-.017.002-.005.006-.013.001-.004.015-.035.001-.005.006-.013.002-.005.007-.017.007-.017.002-.005.005-.013.002-.005.007-.016v-.001l.008-.018v-.002l.007-.016.002-.003.022-.055.001-.002.007-.016v-.002l.016-.037.001-.001.008-.018.024-.057c.108-.253.221-.503.34-.752zm3.939-6.962l.867.5-1.996 3.466-.866-.499 1.995-3.467zm3.99-6.933l.867.499-1.995 3.466-.867-.498.996-1.731.004-.007.01-.016.009-.016.005-.01.971-1.687zm3.99-6.934l.868.499-1.996 3.467-.866-.499 1.995-3.467zm3.992-6.933l.866.498-1.995 3.467-.867-.499.623-1.082.015-.025.004-.008.001-.002 1.353-2.35zm3.99-6.934l.867.499-1.995 3.467-.867-.5 1.995-3.466zm3.99-6.934l.867.5-1.995 3.466-.867-.499 1.996-3.467zm3.991-6.933l.867.498-1.995 3.467-.867-.499v-.001h.001v-.001l.002-.003.001-.002.001-.002.002-.002.002-.004.003-.006.001-.001.004-.007.003-.005.001-.002v-.001l.003-.005.001-.002.003-.005.006-.01.001-.002.006-.01.001-.002.007-.011.001-.003.007-.012.009-.015.001-.003.004-.006.004-.007.001-.002.004-.006.001-.003.002-.003.005-.009.002-.003.001-.002.005-.008v-.002l.005-.008h.001l.002-.005.002-.004.002-.002.01-.018.002-.003.004-.008h.001l.005-.01.002-.003.005-.008v-.001l.006-.01.001-.002.005-.01h.001l.004-.007.004-.007.012-.02v-.002l.01-.017.001-.001.002-.003.003-.005.005-.01.008-.013.013-.023.002-.004.015-.025.015-.026.002-.004.015-.026.015-.027.002-.003.016-.027v-.002l.008-.013.002-.003.005-.008.007-.013.004-.006.001-.003.008-.013.001-.002.016-.028.003-.004.017-.03.017-.03.003-.006.017-.03.002-.002.016-.028.003-.006.019-.032.01-.017.008-.014.004-.008.001-.001.002-.004.035-.06.001-.002.02-.034v-.002l.02-.034.002-.004.041-.071.001-.001.021-.037.001-.001.02-.034.003-.007.02-.035.022-.037.001-.002.032-.055.003-.005.008-.015.003-.004.02-.037h.001l.023-.04.044-.076.004-.007.043-.076.001-.002.045-.078.003-.005.044-.076.002-.003.022-.039v-.001l.017-.03.014-.023.002-.004.004-.006.009-.016.002-.003.022-.039.046-.08.003-.004.09-.156.002-.004.089-.155.002-.004.066-.114.02-.036.004-.005.041-.073c.015-.024.028-.049.042-.073l.002-.003.08-.14.003-.003.038-.067.038-.066v-.002l.073-.124.001-.003.066-.115.001-.001.06-.103v-.003l.053-.09v-.001l.045-.078.037-.063v-.001l.027-.046.022-.04zm3.99-6.934l.868.499-1.996 3.467-.866-.5 1.995-3.466zm3.991-6.934l.867.5-1.995 3.466-.867-.499 1.217-2.115.003-.004c0-.002.002-.003.003-.005l.772-1.343zm3.991-6.933l.867.499-1.996 3.466-.866-.498 1.995-3.467zm3.99-6.934l.867.499-1.995 3.467-.867-.5 1.996-3.466zm3.991-6.934l.867.5-1.995 3.466-.867-.499 1.995-3.467zM57.44 5.79l.704.71c-.899.89-1.711 1.874-2.415 2.926l-.831-.557c.604-.902 1.276-1.746 2.006-2.528l.002-.001.027-.03h.001l.012-.013.003-.003.01-.012.003-.002.013-.014.002-.002.01-.01.005-.006L57 6.24l.003-.004.013-.013.003-.003.01-.01.005-.006.007-.007.006-.006.008-.01.008-.007.008-.008.006-.007.006-.007.006-.006.007-.007.012-.012.005-.005.008-.008.004-.005.008-.008.003-.004.03-.03.001-.001.01-.01.001-.002c.086-.088.173-.176.261-.263zm6.645-4.359l.372.928c-1.175.47-2.306 1.06-3.364 1.754l-.549-.836c.13-.085.262-.17.395-.252l.051-.032c.002 0 .002 0 .003-.002l.011-.007.003-.001.035-.022.004-.002.01-.007.005-.002.01-.007.004-.002.02-.013.004-.002.01-.006c.002 0 .003-.002.005-.003l.01-.006.006-.004.016-.01.006-.003.008-.005.008-.005.007-.004.009-.005.007-.005.013-.007.008-.005.008-.005.008-.005.009-.005.006-.004.011-.007.006-.003.014-.008.005-.003.011-.007.006-.003.012-.007.003-.003.016-.009.004-.002.012-.007.005-.003.012-.007.004-.003.016-.01.017-.009.003-.002.014-.008.002-.001.034-.02h.002l.014-.01.003-.001.015-.009h.002l.017-.01v-.001l.016-.01h.003l.015-.01h.002l.033-.02h.002l.016-.01h.001l.051-.03h.002l.052-.03c.77-.434 1.567-.816 2.389-1.145zM71.514 0v1c-1.143 0-2.291.104-3.413.309l-.18-.984c.494-.09.991-.162 1.494-.215l.04-.004h.001l.04-.004h.002l.04-.004h.001l.04-.004h.002l.018-.002h.001l.02-.002h.002l.018-.002h.002l.02-.002.02-.002h.001l.02-.002.02-.002h.002l.038-.003h.004l.038-.004h.003l.038-.004h.004l.018-.001.02-.002h.003l.018-.002h.001l.02-.001h.003l.016-.002h.003l.019-.002h.003l.016-.001h.004l.018-.002h.004l.015-.001h.004l.019-.002h.003l.016-.001h.004l.019-.002h.002l.016-.001h.005l.018-.002h.001l.018-.001h.005l.016-.001h.003l.017-.002h.006l.015-.001h.003L70.24.04h.005l.015-.002h.004l.018-.001h.005L70.3.037h.004l.018-.002h.019l.005-.001.018-.001h.003l.016-.001h.005l.018-.001h.002l.016-.001h.005l.018-.002h.024c.012-.002.025-.002.037-.003H70.53l.001-.001h.019l.005-.001h.016l.002-.001h.019l.004-.001h.019l.019-.002h.023l.018-.002h.025l.018-.001h.003l.015-.001h.023l.004-.001h.02l.018-.001h.002l.017-.001h.024l.018-.001h.005l.016-.001h.026l.015-.001h.004l.018-.001h.024l.018-.001h.024l.018-.001h.024l.019-.001H71.097l.019-.001h.042l.018-.001h.047l.017-.001h.067L71.323 0h.13L71.47 0h.043z" class="cls-10" transform="rotate(90 125.055 212.125)"/>
            </g>
        </g>
        <text id="_0-2" fill="#fff" data-name="0" font-family="Gotham-Medium, Gotham" font-size="14px" font-weight="500" opacity="0.996" transform="translate(1336 576)">
            <tspan x="0" y="0">0</tspan>
        </text>
    </g>
</svg>
