<svg width="100" height="100" fill="none" xmlns="http://www.w3.org/2000/svg">
    <path d="M10.997 31.557a3.299 3.299 0 1 1-6.597 0 3.298 3.298 0 1 1 6.597 0z" fill="#95E727"/>
    <path d="m28.83 40.987-.02.2c.003-.037.01-.07.013-.107.007-.033.007-.063.007-.093zM34.473 65.477l-.213-.28c.077-.024.15-.05.223-.074a6.172 6.172 0 0 0 1.207-.53 5.51 5.51 0 0 0 .823-.586 6.114 6.114 0 0 0 1.424-1.797c.13-.247.253-.497.353-.76.316-.833.477-1.75.477-2.75a9.075 9.075 0 0 0-.24-2.063c-.217-.877-.577-1.63-1.097-2.244l-3.13.497v-1.363a9.8 9.8 0 0 1-1.537 1.39 7.518 7.518 0 0 1-3.24 1.34c-2.136.34-3.927-.264-5.326-1.79a6.85 6.85 0 0 1-.71-.944l-4.694.744v22.576l8.22-1.303v-7.447l3.463 5.777.617 1.027 9.397-1.49-5.337-7.03-.68-.9zm-3.886-3.984a2.05 2.05 0 0 1-.43.627 2.616 2.616 0 0 1-.784.547 3.85 3.85 0 0 1-1.056.306l-1.307.207v-4.41l1.306-.207c.537-.086.987-.06 1.357.057.177.057.344.127.484.23.1.073.19.163.266.26.25.317.377.747.377 1.297.003.406-.07.766-.213 1.086zM90.65 48.72l-9.47 1.5-3.397 6.697V47.99l-7.52 1.193v2.537c.367.17.707.383 1.017.643 1.16.98 1.75 2.477 1.75 4.45v10.82l4.757-.753v-6.033l3.623 5.46 9.567-1.517-6.234-7.383 5.907-8.687z" fill="#fff"/>
    <path d="M70.806 52.91a3.62 3.62 0 0 0-.753-.493 4.032 4.032 0 0 0-.273-.127c-.097-.04-.194-.083-.294-.12-.12-.04-.246-.07-.373-.103a5.08 5.08 0 0 0-.57-.104 6.926 6.926 0 0 0-1.947.057 6.886 6.886 0 0 0-2.866 1.133c-.847.587-1.62 1.397-2.32 2.434v-2.23l-5.997.95v16.12l6.257-.994v-8.14c0-.696.123-1.24.37-1.633a1.482 1.482 0 0 1 1.08-.7c.213-.033.396-.027.546.027a.66.66 0 0 1 .354.283c.17.273.256.81.256 1.61v8.14l8.084-1.283v-10.82c0-1.797-.52-3.13-1.554-4.007zM87.857 29.607v2.136c-.72-.79-1.5-1.333-2.344-1.633-.843-.297-1.78-.363-2.81-.2-1.69.267-3.103 1.07-4.253 2.393v13.754c1.173.99 2.59 1.356 4.253 1.093a6.77 6.77 0 0 0 2.917-1.203c.88-.634 1.723-1.534 2.527-2.7v2.433l7.456-1.183V28.38l-7.746 1.227zm-.534 9.766c-.376.477-.88.764-1.513.864-.623.1-1.123-.034-1.507-.394-.38-.36-.57-.883-.57-1.57 0-.696.19-1.29.57-1.783a2.29 2.29 0 0 1 1.507-.887c.623-.1 1.123.034 1.507.4.38.367.57.904.57 1.61 0 .7-.187 1.287-.564 1.76zM60.707 49.007c1.13.903 2.52 1.236 4.176.973a6.979 6.979 0 0 0 2.997-1.217 8.2 8.2 0 0 0 1.233-1.096c.23-.25.454-.52.667-.81.167-.224.327-.46.483-.707v2.37l7.52-1.193V23.16l-7.94 1.26v7.5c0 .667.014 1.223.04 1.67.027.447.067.83.12 1.143-.666-.82-1.423-1.393-2.27-1.72-.846-.326-1.8-.41-2.85-.24-1.943.307-3.546 1.354-4.813 3.134-.03.04-.053.086-.083.126.476.86.72 1.927.72 3.187v9.787zm5.78-9.604a2.29 2.29 0 0 1 1.506-.876c.624-.1 1.124.033 1.507.4.38.366.57.903.57 1.61 0 .706-.193 1.313-.58 1.823-.387.51-.887.81-1.497.907-.613.096-1.11-.047-1.496-.434-.387-.386-.58-.933-.58-1.64 0-.706.186-1.303.57-1.79zM49.347 43.697c0-.697.123-1.24.37-1.634a1.483 1.483 0 0 1 1.08-.7c.43-.066.73.034.903.31.17.274.257.81.257 1.61v8.14l8.083-1.283V39.32c0-.253-.01-.497-.03-.73a5.75 5.75 0 0 0-.463-1.857 3.951 3.951 0 0 0-1.06-1.423c-1.037-.877-2.44-1.173-4.21-.89a6.885 6.885 0 0 0-2.867 1.133 7.69 7.69 0 0 0-.923.754c-.494.473-.96 1.03-1.397 1.68v-2.23l-5.997.95v16.12l6.257-.994v-8.136h-.003zM28.83 40.987c-.003.03-.003.06-.003.09l-.014.106a10.423 10.423 0 0 1-.7 2.907 9.797 9.797 0 0 1-2.17 3.26c-.853.847-1.887 1.553-3.056 2.12.116 1.117.38 2.107.796 2.96.06.123.123.243.19.36.12.21.25.413.387.607.143.196.296.386.46.566 1.273 1.39 2.873 1.93 4.806 1.624a6.77 6.77 0 0 0 2.917-1.204c.634-.456 1.247-1.053 1.843-1.786a18.702 18.702 0 0 0 .687-.914v2.434l7.457-1.184v-16.12l-7.747 1.227v2.137c-.72-.79-1.5-1.334-2.343-1.634-.844-.296-1.78-.363-2.81-.2a7.35 7.35 0 0 0-.78.174c.083.466.13.95.13 1.44-.007.35-.02.693-.05 1.03zm2.297 3.94a2.29 2.29 0 0 1 1.506-.887c.623-.1 1.123.033 1.507.4.38.367.57.903.57 1.61 0 .697-.187 1.283-.563 1.757-.377.476-.88.763-1.514.863-.623.1-1.123-.033-1.507-.393-.38-.36-.57-.884-.57-1.57 0-.697.19-1.29.57-1.78zM46.997 57.777a7.713 7.713 0 0 0-.55-.547 5.673 5.673 0 0 0-1.324-.893 5.1 5.1 0 0 0-.466-.194c-.844-.296-1.78-.363-2.81-.2a6.61 6.61 0 0 0-.687.144c-.67.173-1.29.44-1.87.793l.11.917c.02.256.033.52.033.796 0 1.75-.456 3.294-1.36 4.59a6.626 6.626 0 0 1-2.706 2.284l5.673 7.47.233.31c.094-.007.187-.014.284-.024.093-.01.19-.02.286-.036a6.77 6.77 0 0 0 2.917-1.204c.88-.633 1.723-1.533 2.527-2.7v2.434l7.456-1.184v-16.12l-7.746 1.23v2.134zm-.53 7.63c-.377.476-.88.763-1.514.863-.623.1-1.123-.033-1.506-.393-.38-.36-.57-.884-.57-1.57 0-.697.19-1.29.57-1.784a2.29 2.29 0 0 1 1.506-.886c.544-.087.997.006 1.357.273.05.04.1.08.15.127.38.366.57.903.57 1.61 0 .7-.187 1.283-.563 1.76z" fill="#fff"/>
    <path d="M28.043 38.743a11.571 11.571 0 0 0-.083-.42 3.9 3.9 0 0 0-.063-.21 7.36 7.36 0 0 0-1.43-2.68 9.016 9.016 0 0 0-1.627-1.42c-.01-.006-.017-.013-.027-.016l-.23-.15a.86.86 0 0 0-.093-.057 6.617 6.617 0 0 0-.207-.123l-.12-.07a5.29 5.29 0 0 0-.19-.104c-.046-.026-.096-.05-.143-.073l-.17-.087a6.083 6.083 0 0 0-.213-.096 3.66 3.66 0 0 0-.167-.074c-.087-.036-.17-.073-.257-.106-.036-.014-.073-.027-.11-.044-.073-.026-.146-.056-.22-.083l-.11-.04c-.073-.027-.146-.05-.22-.073a1.195 1.195 0 0 1-.1-.034c-.08-.023-.16-.05-.24-.07l-.073-.02c-.323-.09-.64-.16-.94-.216-.01-.004-.02-.004-.03-.007-.09-.017-.18-.033-.267-.047-.013-.003-.026-.003-.04-.006-.09-.014-.176-.027-.26-.037-.006 0-.013-.003-.02-.003-1.346-.177-2.293-.067-2.293-.067-.037 0-.073.007-.113.007-.224.01-.447.026-.667.05l-.177.02-.22.03c-.14.02-.28.036-.42.06-.1.016-.203.036-.303.053h-.003c-.12.023-.237.047-.354.073-.126.027-.256.054-.38.084-.053.013-.106.026-.16.043-.146.037-.29.077-.433.117l-.213.063c-.124.037-.247.073-.367.113l-.223.074c-.117.04-.234.08-.347.123l-.213.08c-.117.043-.23.09-.347.133-.063.027-.13.05-.193.077-.127.053-.25.107-.374.16-.046.02-.096.04-.143.063-.167.077-.333.15-.493.227-.03.013-.057.03-.087.043l-.387.19c-.053.027-.103.054-.156.08-.097.05-.197.104-.29.154l-.167.09c-.087.046-.173.096-.26.143l-.157.09c-.083.047-.163.097-.243.143-.047.027-.093.057-.14.084l-.24.146c-.037.024-.073.047-.11.067l-.317.2-.12.08c-.403.267-.706.487-.886.62-.017.013-.03.027-.047.04-.057.043-.11.087-.167.13a8.105 8.105 0 0 0-.496.41v.413c-.007.044-.014.084-.014.127v20.157h.014v1.09l8.53-1.35v-6.13h-.024c-.38-.01-.956-.08-1.586-.194a8.987 8.987 0 0 1-.977-.23l-.027-.01-.026-.01-.314-.126v-.717l.56.223c.204.06.504.14.904.214.586.106 1.14.176 1.483.183H16.223c.117.003.227.003.334.007h.096c.13 0 .257 0 .384-.004.396-.013.783-.05 1.156-.11 1.504-.236 2.874-.636 4.107-1.196.22-.1.43-.21.64-.324.157-.08.307-.166.457-.253a16.942 16.942 0 0 0 .7-.44c.493-.34.95-.713 1.363-1.123a9.049 9.049 0 0 0 2.023-3.037c.394-.957.62-2.01.687-3.153a8.017 8.017 0 0 0-.127-1.934z" fill="#fff"/>
    <path d="M20.897 37.277c-.194-.757.233-1.467.95-1.707.353-.12 1.12-.11 1.8.22.693.333 1.3.993 1.53 1.4.233.413.413.897.553 1.45.23.91.043 2.01-.88 2.39-.92.38-1.857-.047-2.083-.953-.027-.1-.04-.204-.047-.304a1.712 1.712 0 0 0-.05-.34c-.14-.553-.517-1.056-.943-1.293-.43-.233-.717-.417-.83-.863zM17.15 38.057c.153-.827-.347-1.527-1.117-1.567-.303-.017-.953.043-1.57.34-.613.297-1.396.937-1.87 1.57a4.143 4.143 0 0 0-.83 2.523c-.003 1.02.78 2.067 1.704 2.114.926.046 1.826-.717 2.01-1.707.02-.11.03-.217.03-.32 0-.117.01-.237.033-.357.113-.603.343-1.123.826-1.43v-.006c.394-.254.69-.674.784-1.16zM20.69 39.63a.307.307 0 0 0-.167-.283c-.01-.007-.023-.01-.033-.014-.26-.11-.563-.15-.883-.096-.32.05-.624.186-.884.376-.01.01-.023.017-.033.027a.447.447 0 0 0-.167.337c0 .613.487 1.033 1.084.94.6-.1 1.083-.674 1.083-1.287z" fill="#000"/>
</svg>
