<svg width="180" height="180" fill="none" xmlns="http://www.w3.org/2000/svg">
    <path d="M21.096 57.642a5.818 5.818 0 0 1-5.82 5.82 5.818 5.818 0 0 1-5.82-5.82 5.818 5.818 0 0 1 5.82-5.82 5.818 5.818 0 0 1 5.82 5.82z" fill="#95E727"/>
    <path d="M52.578 74.286c-.012.12-.024.234-.03.354.006-.066.018-.126.024-.192 0-.054 0-.108.006-.162zM62.538 117.516l-.378-.498c.138-.036.264-.09.396-.132.408-.132.804-.282 1.182-.456.324-.15.642-.306.948-.486.516-.3.996-.648 1.452-1.032a10.966 10.966 0 0 0 1.824-2.028c.258-.366.48-.75.69-1.14.234-.432.444-.876.624-1.338.558-1.47.84-3.084.84-4.854 0-.87-.072-1.674-.186-2.442a12.61 12.61 0 0 0-.234-1.206c-.384-1.548-1.02-2.88-1.938-3.96l-5.526.876V96.414c-.882.966-1.788 1.788-2.712 2.454a13.291 13.291 0 0 1-5.718 2.364c-3.768.6-6.936-.468-9.402-3.162a12.182 12.182 0 0 1-1.254-1.662l-8.286 1.314v39.846l14.508-2.298v-13.146l6.114 10.194 1.086 1.812 16.59-2.628-9.42-12.408-1.2-1.578zm-6.864-7.038a4.704 4.704 0 0 1-.294.54 3.357 3.357 0 0 1-.216.294 2.692 2.692 0 0 1-.246.276c-.378.39-.84.714-1.38.966-.54.252-1.164.432-1.866.546l-2.304.366v-7.782l2.304-.366c.948-.15 1.74-.108 2.394.102.312.102.606.222.852.408.18.132.336.288.474.456.444.558.666 1.32.666 2.286 0 .714-.126 1.35-.384 1.908zM161.682 87.936l-16.716 2.652-6 11.82V86.652l-13.272 2.106v4.476c.648.3 1.248.672 1.794 1.134 2.046 1.728 3.084 4.374 3.084 7.854v19.098l8.394-1.332v-10.65l6.396 9.636 16.884-2.676-10.998-13.032 10.434-15.33z" fill="#000"/>
    <path d="M126.66 95.334a6.651 6.651 0 0 0-1.326-.87 5.987 5.987 0 0 0-.486-.222c-.174-.072-.336-.15-.516-.21-.21-.072-.438-.126-.66-.18-.324-.078-.66-.138-1.008-.186-1.044-.132-2.184-.102-3.438.096-1.878.3-3.564.966-5.058 1.998-1.5 1.032-2.862 2.466-4.092 4.296V96.12L99.492 97.8v28.452l11.04-1.752v-14.364c0-1.23.216-2.19.654-2.88.438-.69 1.068-1.104 1.902-1.236.378-.06.702-.042.966.048s.474.258.624.498c.3.486.456 1.434.456 2.844v14.364l14.268-2.262v-19.098c0-3.18-.912-5.538-2.742-7.08zM156.756 54.204v3.768c-1.272-1.392-2.646-2.352-4.134-2.88-1.488-.528-3.138-.642-4.962-.354-2.982.474-5.478 1.89-7.506 4.224v24.276c2.07 1.746 4.572 2.4 7.506 1.932a11.97 11.97 0 0 0 5.148-2.124c1.554-1.116 3.042-2.706 4.464-4.764v4.29l13.158-2.088V52.032l-13.674 2.172zm-.942 17.238c-.666.84-1.554 1.35-2.67 1.524-1.098.174-1.986-.06-2.658-.696-.672-.636-1.008-1.56-1.008-2.772 0-1.23.336-2.28 1.008-3.144.672-.87 1.56-1.392 2.658-1.566 1.098-.174 1.986.06 2.658.708.672.648 1.008 1.59 1.008 2.838 0 1.236-.33 2.268-.996 3.108zM108.834 88.44c1.998 1.596 4.446 2.178 7.374 1.716 1.95-.312 3.714-1.026 5.286-2.148a13.902 13.902 0 0 0 2.172-1.938c.408-.444.798-.918 1.176-1.428.294-.396.582-.81.858-1.248V87.582l13.272-2.106V42.822l-14.01 2.22v13.236c0 1.176.024 2.154.072 2.946.048.792.12 1.464.216 2.016-1.176-1.446-2.508-2.46-4.008-3.036-1.5-.576-3.174-.72-5.034-.426-3.432.546-6.264 2.388-8.496 5.532-.054.072-.096.15-.144.222.84 1.518 1.272 3.396 1.272 5.622V88.44h-.006zm10.206-16.944c.672-.858 1.56-1.374 2.658-1.548 1.098-.174 1.986.06 2.658.708.672.648 1.008 1.59 1.008 2.838s-.342 2.322-1.026 3.216c-.684.894-1.566 1.428-2.646 1.602-1.08.174-1.962-.084-2.64-.762-.684-.678-1.026-1.644-1.026-2.892 0-1.254.336-2.304 1.014-3.162zM88.788 79.068c0-1.23.216-2.19.654-2.88.438-.69 1.068-1.104 1.902-1.236.756-.12 1.29.06 1.59.546.3.486.456 1.434.456 2.844v14.364l14.268-2.262V71.346c0-.444-.018-.876-.054-1.284-.108-1.236-.384-2.328-.816-3.276a7.613 7.613 0 0 0-.612-1.11 6.835 6.835 0 0 0-1.26-1.404c-1.83-1.542-4.308-2.07-7.434-1.572-1.878.3-3.564.966-5.058 1.998-.564.39-1.104.834-1.626 1.332a17.571 17.571 0 0 0-2.466 2.964v-3.936l-10.584 1.68V95.19l11.04-1.752v-14.37zM52.578 74.286c-.006.054-.006.108-.006.162-.006.066-.018.126-.024.192-.18 1.836-.594 3.558-1.236 5.13a17.215 17.215 0 0 1-3.834 5.754c-1.506 1.494-3.33 2.742-5.394 3.744.204 1.974.666 3.72 1.404 5.226a11.54 11.54 0 0 0 1.02 1.704c.252.348.522.684.81.996 2.244 2.448 5.076 3.408 8.484 2.862a11.97 11.97 0 0 0 5.148-2.124c1.116-.804 2.202-1.86 3.252-3.15.27-.336.54-.684.81-1.056.132-.186.27-.366.402-.558v4.296l13.158-2.088V66.924L62.898 69.09v3.768c-1.272-1.392-2.646-2.352-4.134-2.88-1.488-.528-3.138-.642-4.962-.354-.474.078-.93.18-1.38.306.15.822.234 1.674.234 2.538a25.68 25.68 0 0 1-.078 1.818zm4.05 6.954c.672-.87 1.56-1.392 2.658-1.566 1.098-.174 1.986.06 2.658.708.672.648 1.008 1.59 1.008 2.838 0 1.23-.33 2.262-.996 3.102-.666.84-1.554 1.35-2.67 1.524-1.098.174-1.986-.06-2.658-.696-.672-.636-1.008-1.56-1.008-2.772 0-1.224.336-2.274 1.008-3.138zM84.642 103.92a13.392 13.392 0 0 0-.972-.966 9.882 9.882 0 0 0-2.34-1.572 8.286 8.286 0 0 0-.828-.342c-1.488-.528-3.138-.642-4.962-.354-.414.066-.816.15-1.212.252-1.182.306-2.28.78-3.3 1.404l.198 1.62c.036.456.06.918.06 1.404 0 3.084-.81 5.814-2.4 8.1-1.254 1.8-2.856 3.15-4.776 4.032l10.008 13.188.414.546c.168-.012.33-.024.498-.042.168-.018.336-.036.51-.066A11.97 11.97 0 0 0 80.688 129c1.554-1.116 3.042-2.706 4.464-4.764v4.29l13.158-2.088V97.986l-13.674 2.166v3.768h.006zm-.936 13.47c-.666.84-1.554 1.35-2.67 1.524-1.098.174-1.986-.054-2.658-.696-.672-.636-1.008-1.56-1.008-2.772 0-1.23.336-2.28 1.008-3.144.672-.87 1.56-1.392 2.658-1.566.96-.15 1.758.012 2.394.486.09.066.18.144.264.222.672.648 1.008 1.59 1.008 2.838-.006 1.236-.336 2.268-.996 3.108z" fill="#000"/>
    <path d="M51.186 70.326c-.048-.252-.09-.504-.15-.738l-.108-.372a12.87 12.87 0 0 0-2.526-4.728 15.76 15.76 0 0 0-2.868-2.502c-.018-.012-.03-.024-.048-.03-.132-.09-.27-.174-.408-.264-.054-.036-.108-.066-.162-.102-.12-.072-.24-.144-.366-.216-.072-.042-.144-.084-.216-.12-.114-.06-.222-.126-.336-.186-.084-.042-.168-.09-.258-.132-.102-.048-.204-.102-.3-.15-.126-.06-.252-.114-.378-.174-.096-.042-.198-.09-.294-.132-.15-.066-.3-.126-.45-.186l-.192-.072-.39-.144c-.066-.024-.132-.048-.192-.066-.132-.042-.258-.09-.39-.132l-.18-.054-.426-.126-.126-.036a21.79 21.79 0 0 0-1.662-.384c-.018-.006-.036-.006-.054-.012-.162-.03-.318-.054-.474-.084-.024-.006-.048-.006-.066-.012-.156-.024-.312-.048-.462-.066-.012 0-.024-.006-.036-.006-2.376-.312-4.05-.12-4.05-.12-.066 0-.132.012-.198.012-.396.018-.786.048-1.176.09l-.312.036c-.132.018-.258.036-.384.048-.246.036-.498.066-.744.108-.18.03-.36.06-.534.096h-.006c-.21.042-.42.084-.624.132-.222.048-.45.096-.672.15l-.282.072c-.258.066-.516.132-.768.204a9.046 9.046 0 0 0-.378.114c-.216.066-.438.132-.648.204a7.43 7.43 0 0 0-.39.132l-.612.216c-.126.048-.252.09-.378.138-.204.078-.408.156-.612.24-.114.048-.228.09-.342.138-.222.09-.444.186-.66.282l-.252.108c-.294.132-.588.264-.87.402a1.179 1.179 0 0 0-.15.078c-.228.114-.456.222-.678.336-.096.048-.186.096-.276.144-.174.09-.348.18-.51.27a4.553 4.553 0 0 1-.294.156c-.156.084-.306.168-.456.252-.09.054-.186.102-.276.156l-.432.252c-.084.048-.168.096-.246.144-.144.09-.288.174-.426.258-.066.042-.132.078-.192.12-.192.12-.384.24-.558.354 0 0-.084.054-.216.144-.714.468-1.248.858-1.566 1.098-.03.024-.054.048-.084.072-.096.072-.192.15-.294.228-.312.24-.612.486-.876.72v.732c-.012.072-.024.15-.024.222v35.58h.024v1.926l15.054-2.382V91.944h-.042c-.672-.018-1.692-.144-2.802-.342a15.883 15.883 0 0 1-1.722-.408l-.048-.012-.048-.018-.552-.222v-1.266l.99.396c.354.108.888.246 1.596.378 1.032.186 2.01.312 2.616.324h.024c.21.006.402.006.588.012h.168c.234 0 .456 0 .678-.006.702-.024 1.38-.09 2.046-.192 2.658-.42 5.07-1.122 7.248-2.112.39-.18.762-.372 1.128-.57.276-.144.54-.294.804-.444.246-.144.492-.294.726-.444.168-.108.342-.216.504-.33.87-.6 1.674-1.26 2.406-1.98a15.915 15.915 0 0 0 3.57-5.364c.69-1.692 1.092-3.552 1.212-5.568a13.312 13.312 0 0 0-.204-3.45z" fill="#000"/>
    <path d="M38.574 67.74c-.336-1.338.414-2.592 1.674-3.012.624-.21 1.974-.192 3.174.39 1.224.588 2.298 1.752 2.7 2.472.408.732.732 1.584.978 2.562.402 1.602.072 3.546-1.554 4.218-1.626.672-3.276-.078-3.678-1.686a2.735 2.735 0 0 1-.084-.54 3.36 3.36 0 0 0-.084-.6c-.246-.972-.912-1.866-1.668-2.28-.756-.414-1.26-.738-1.458-1.524zM31.956 69.12c.27-1.458-.612-2.694-1.968-2.766-.534-.03-1.686.072-2.772.6-1.086.522-2.466 1.656-3.3 2.772-.918 1.23-1.458 2.706-1.464 4.458-.006 1.8 1.374 3.648 3.006 3.732 1.632.084 3.222-1.266 3.546-3.012.036-.192.054-.384.054-.57 0-.204.018-.414.06-.63.198-1.062.606-1.986 1.458-2.52v-.006a3.206 3.206 0 0 0 1.38-2.058zM38.208 71.892a.546.546 0 0 0-.294-.504c-.018-.012-.042-.018-.06-.024a2.862 2.862 0 0 0-1.56-.174 3.651 3.651 0 0 0-1.62.714.794.794 0 0 0-.294.594c0 1.08.858 1.824 1.914 1.656 1.062-.162 1.914-1.176 1.914-2.262z" fill="#fff"/>
</svg>
