<?xml version="1.0" encoding="UTF-8"?>
<svg width="139px" height="23px" viewBox="0 0 139 23" version="1.1" xmlns="http://www.w3.org/2000/svg" xmlns:xlink="http://www.w3.org/1999/xlink">
    <title>logo_w</title>
    <g id="Page-1" stroke="none" stroke-width="1" fill="none" fill-rule="evenodd">
        <g id="logo_w" fill="#FFFFFF" fill-rule="nonzero">
            <path d="M11,10.78 C11.2498547,10.1082821 11.3752353,9.39666231 11.37,8.68 C11.3757401,7.99671943 11.2536412,7.31839194 11.01,6.68 C10.7821974,6.06268884 10.4122093,5.50770673 9.93,5.06 C9.36581033,4.57856605 8.70897427,4.21781671 8,4 C7.11029811,3.74038896 6.1866941,3.61566871 5.26,3.63 L0,3.63 L0,19.13 L3.4,19.13 L3.4,13.89 L5.27,13.89 C6.19431105,13.9075187 7.11560955,13.7792793 8,13.51 C8.70397924,13.2827022 9.35636609,12.9191324 9.92,12.44 C10.3995889,11.9743777 10.7686454,11.4071241 11,10.78 Z M7.31,10.55 C6.73489434,11.04381 5.98520268,11.2852972 5.23,11.22 L3.4,11.22 L3.4,6.28 L5.27,6.28 C5.68715883,6.27115273 6.1028693,6.33198841 6.5,6.46 C6.81269147,6.55442883 7.09989488,6.71854506 7.34,6.94 C7.56323971,7.14727617 7.73452958,7.40421097 7.84,7.69 C7.95239485,8.0111616 8.00657744,8.34980283 8,8.69 C8.03466333,9.37111061 7.80135402,10.0387342 7.35,10.55 L7.31,10.55 Z" id="Shape"></path>
            <path d="M19.15,3.64 L15.76,3.64 L9.76,19.13 L12.41,19.13 C12.67815,19.1347161 12.9396499,19.0463715 13.15,18.88 C13.3279752,18.741932 13.4660271,18.5590131 13.55,18.35 L14.55,15.52 L20.45,15.52 L21.45,18.35 C21.536165,18.5715569 21.6814316,18.7652457 21.87,18.91 C22.0866642,19.0608492 22.3461153,19.1379833 22.61,19.13 L25.24,19.13 L19.24,3.72 L19.15,3.64 Z M15.37,13.09 L17,8.62 C17.09,8.37 17.2,8.08 17.31,7.75 C17.42,7.42 17.44,7.33 17.5,7.11 C17.56,7.32 17.63,7.53 17.69,7.73 C17.75,7.93 17.9,8.35 18,8.6 L19.59,13.09 L15.37,13.09 Z" id="Shape"></path>
            <path d="M36.35,12.48 C36.35,12.71 36.35,12.94 36.35,13.2 L36.35,13.55 L29,4.18 C28.9272997,4.0837672 28.8470456,3.99348138 28.76,3.91 C28.683144,3.84434864 28.5993077,3.78733996 28.51,3.74 C28.4147749,3.69787711 28.3135552,3.67088518 28.21,3.66 C28.0935845,3.64917428 27.9764155,3.64917428 27.86,3.66 L26.08,3.66 L26.08,19.13 L29.08,19.13 L29.08,10.19 C29.08,9.99 29.08,9.76 29.08,9.52 C29.08,9.28 29.08,9.31 29.08,9.2 L36.42,18.54 C36.5741784,18.7370997 36.7729674,18.89476 37,19 C37.2096729,19.0973363 37.4388946,19.1452334 37.67,19.14 L39.42,19.14 L39.42,3.64 L36.42,3.64 L36.35,12.48 Z" id="Path"></path>
            <path d="M55.61,11.38 C55.6031989,10.3142825 55.396278,9.25932494 55,8.27 L55,8.27 C54.6383167,7.35089608 54.0901287,6.51669697 53.39,5.82 C52.6741472,5.1222022 51.823471,4.57776941 50.89,4.22 C49.8570775,3.82107351 48.757168,3.62417613 47.65,3.64 L41.65,3.64 L41.65,19.13 L47.65,19.13 C48.7567667,19.1409722 49.8557707,18.9442369 50.89,18.55 C51.823471,18.1922306 52.6741472,17.6477978 53.39,16.95 C54.0883458,16.2518493 54.6362748,15.4180442 55,14.5 C55.3961379,13.5071453 55.6030302,12.448942 55.61,11.38 Z M51.81,13.5 C51.628341,14.079446 51.3325297,14.6166664 50.94,15.08 C50.5578402,15.5137063 50.0826949,15.8555375 49.55,16.08 C48.9541391,16.311855 48.3193387,16.4272732 47.68,16.42 L45.12,16.42 L45.12,6.42 L47.68,6.42 C48.3197,6.40835996 48.9553381,6.52393053 49.55,6.76 C50.0800852,6.9890899 50.5542825,7.330239 50.94,7.76 C51.3304969,8.22097814 51.6261489,8.75451111 51.81,9.33 C52.0263858,10.0154624 52.1310572,10.7312795 52.12,11.45 C52.1251451,12.1453858 52.0205251,12.8372277 51.81,13.5 L51.81,13.5 Z" id="Shape"></path>
            <path d="M64.26,3.72 L64.26,3.64 L60.86,3.64 L54.86,19.13 L57.51,19.13 C57.7786746,19.1381662 58.0413251,19.0494329 58.25,18.88 C58.4309655,18.742532 58.5724038,18.5596971 58.66,18.35 L59.66,15.52 L65.55,15.52 L66.55,18.35 C66.6435216,18.5701131 66.791494,18.7628213 66.98,18.91 C67.1966642,19.0608492 67.4561153,19.1379833 67.72,19.13 L70.35,19.13 L64.26,3.72 Z M60.44,13.09 L62,8.62 C62.1,8.37 62.21,8.08 62.31,7.75 C62.41,7.42 62.44,7.33 62.51,7.11 C62.57,7.32 62.63,7.53 62.7,7.73 C62.77,7.93 62.91,8.35 63.01,8.6 L64.6,13.09 L60.44,13.09 Z" id="Shape"></path>
            <path d="M98.84,7.87 C98.78,7.69 98.72,7.49 98.67,7.29 C98.61,7.5 98.55,7.7 98.49,7.88 C98.43,8.06 98.28,8.48 98.19,8.71 L96.69,13 L100.69,13 L99.14,8.69 C99.05,8.46 99,8.19 98.84,7.87 Z" id="Path"></path>
            <path d="M135.53,3.27320636e-16 L76.53,3.27320636e-16 C74.9154321,-0.0391738526 73.5736216,1.23554618 73.53,2.85 L73.53,20 C73.5736216,21.6144538 74.9154321,22.8891739 76.53,22.85 L135.53,22.85 C137.144568,22.8891739 138.486378,21.6144538 138.53,20 L138.53,2.85 C138.486378,1.23554618 137.144568,-0.0391738526 135.53,3.27320636e-16 Z M87.64,18.72 C87.147406,18.7558924 86.6775584,18.507378 86.43,18.08 L83.67,13.63 C83.5875668,13.4955124 83.4744876,13.3824332 83.34,13.3 C83.1723935,13.2176846 82.9864507,13.1798074 82.8,13.19 L81.9,13.19 L81.9,18.72 L78.65,18.72 L78.65,4 L83.34,4 C84.2353883,3.96875196 85.1307431,4.06299982 86,4.28 C86.6555752,4.46086684 87.2701262,4.76644469 87.81,5.18 C88.2522505,5.55029531 88.5958271,6.02443102 88.81,6.56 C89.0352403,7.11909049 89.1474025,7.71728898 89.14,8.32 C89.1652416,8.79108107 89.1180251,9.2632456 89,9.72 C88.8618955,10.1530381 88.6560063,10.5614413 88.39,10.93 C88.1106986,11.3133087 87.7733087,11.6506986 87.39,11.93 C87.0516919,12.1697473 86.6857191,12.3678426 86.3,12.52 C86.4198466,12.5978003 86.5335167,12.6847246 86.64,12.78 C86.8196631,12.9460922 86.9775843,13.1342537 87.11,13.34 L90.62,18.75 L87.64,18.72 Z M103.54,18.72 C103.283549,18.7301635 103.030776,18.6564381 102.82,18.51 C102.641689,18.3764401 102.503354,18.1966041 102.42,17.99 L101.42,15.29 L95.86,15.29 L94.86,17.98 C94.7800988,18.1830402 94.6450123,18.3596918 94.47,18.49 C94.2681845,18.6486021 94.0164787,18.7301406 93.76,18.72 L91.28,18.72 L97.05,4 L100.29,4 L100.29,4.08 L106.02,18.76 L103.54,18.72 Z M119.54,18.72 L117.86,18.72 C117.639433,18.7273494 117.42022,18.6828218 117.22,18.59 C117.020524,18.4902178 116.846181,18.3466408 116.71,18.17 L109.71,9.29 C109.714991,9.38326661 109.714991,9.47673339 109.71,9.57 C109.71,9.8 109.71,10.01 109.71,10.21 L109.71,18.72 L106.81,18.72 L106.81,4 L108.51,4 L108.85,4 C108.950773,4.00855479 109.049094,4.03567781 109.14,4.08 C109.224465,4.12631175 109.304764,4.17984471 109.38,4.24 C109.463711,4.32017077 109.54064,4.40713447 109.61,4.5 L116.61,13.41 C116.61,13.3 116.61,13.2 116.61,13.09 C116.61,12.98 116.61,12.62 116.61,12.41 L116.61,4 L119.51,4 L119.54,18.72 Z M131.81,18.72 C131.650427,18.7365246 131.489573,18.7365246 131.33,18.72 C131.209085,18.6936696 131.091634,18.6534004 130.98,18.6 C130.875812,18.5500124 130.781076,18.4823442 130.7,18.4 C130.623926,18.3173647 130.55688,18.226853 130.5,18.13 L126.77,12.92 C126.672518,12.7702229 126.533525,12.6520788 126.37,12.58 C126.153364,12.4967588 125.921831,12.4593049 125.69,12.47 L125,12.47 L125,18.76 L121.75,18.76 L121.75,4 L125,4 L125,10 L125.46,10 C125.842662,10.0519452 126.22394,9.89562101 126.46,9.59 L130.13,4.68 C130.291469,4.4550754 130.508544,4.27590248 130.76,4.16 C131.016666,4.05433468 131.292517,4.00325127 131.57,4.01 L134.42,4.01 L129.64,10.16 C129.431064,10.4484992 129.173967,10.6988299 128.88,10.9 C129.037613,10.9789366 129.185311,11.0762827 129.32,11.19 C129.541719,11.3650859 129.73413,11.5743753 129.89,11.81 L134.77,18.81 L131.81,18.72 Z" id="Shape"></path>
            <path d="M83.34,6.49 L81.9,6.49 L81.9,10.83 L83.32,10.83 C83.730661,10.8396671 84.139935,10.7787834 84.53,10.65 C84.8414935,10.5596648 85.1263452,10.3949313 85.36,10.17 C85.5689045,9.97239267 85.7296946,9.72949689 85.83,9.46 C85.9391835,9.16540022 85.9966945,8.8541642 86,8.54 C86.0383816,7.95075292 85.7931662,7.37858372 85.34,7 C84.7492096,6.61093318 84.0449584,6.43134911 83.34,6.49 Z" id="Path"></path>
        </g>
    </g>
</svg>