<svg xmlns="http://www.w3.org/2000/svg" width="16" height="16" viewBox="0 0 16 16">
    <defs>
        <style>
            .cls-2{fill:#a56d52}.cls-3{fill:#c69b6d}
        </style>
    </defs>
    <g id="그룹_507" data-name="그룹 507" transform="translate(-112.518 -413.384)">
        <path id="사각형_561" fill="#fff" d="M0 0H16V16H0z" data-name="사각형 561" transform="translate(112.518 413.384)"/>
        <path id="패스_69" d="M129.87 416.725h-3.329l-1.025 1.481 2.3 1.426 2.05-2.907" class="cls-2" data-name="패스 69" transform="translate(-4.333 -1.114)"/>
        <path id="패스_70" d="M117.265 416.725h3.329l1.025 1.481-2.3 1.426-2.05-2.907" class="cls-2" data-name="패스 70" transform="translate(-1.583 -1.114)"/>
        <circle id="타원_50" cx="1.5" cy="1.5" r="1.5" class="cls-3" data-name="타원 50" transform="translate(119.018 420.884)"/>
        <g id="타원_51" data-name="타원 51" transform="translate(115.017 416.884)">
            <circle id="타원_53" cx="5.5" cy="5.5" r="5.5" fill="none" data-name="타원 53"/>
            <path id="패스_80" d="M121.768 429.634a5.5 5.5 0 1 1 5.5-5.5 5.506 5.506 0 0 1-5.5 5.5zm0-9a3.5 3.5 0 1 0 3.5 3.5 3.5 3.5 0 0 0-3.5-3.5z" class="cls-3" data-name="패스 80" transform="translate(-116.267 -418.634)"/>
        </g>
    </g>
</svg>
