<?xml version="1.0" encoding="UTF-8"?>
<svg width="13px" height="7px" viewBox="0 0 13 7" version="1.1" xmlns="http://www.w3.org/2000/svg" xmlns:xlink="http://www.w3.org/1999/xlink">
    <title>icon-next</title>
    <g id="Page-1" stroke="none" stroke-width="1" fill="none" fill-rule="evenodd">
        <g id="icon-next" transform="translate(6.500000, 3.500000) rotate(-270.000000) translate(-6.500000, -3.500000) translate(3.000000, -3.000000)" fill="#000000" fill-rule="nonzero">
            <path d="M0.83,12.86 L6.859,6.775 C6.95060117,6.68396059 7.00210967,6.56014701 7.00210967,6.431 C7.00210967,6.30185299 6.95060117,6.17803941 6.859,6.087 L6.8,6.044 L0.836,0.142 C0.668277927,-0.0228855145 0.407438235,-0.0463317789 0.213,0.086 L0.145,0.142 C0.053388232,0.23221954 0.00180261282,0.35542208 0.00180261282,0.484 C0.00180261282,0.61257792 0.053388232,0.73578046 0.145,0.826 L5.819,6.442 L0.141,12.172 C-0.0489859539,12.361986 -0.0489859539,12.670014 0.141,12.86 C0.330985954,13.049986 0.639014046,13.049986 0.829,12.86 L0.83,12.86 Z" id="prefix__Path"></path>
        </g>
    </g>
</svg>